<svg width="75" height="75" viewBox="0 0 75 75" fill="none" xmlns="http://www.w3.org/2000/svg">
<g clip-path="url(#clip0_393_3962)">
<path d="M34.5189 47.1623C47.7491 51.8019 62.0053 51.4614 72.7135 50.0568C74.1669 46.0769 75.0005 41.7991 75.0005 37.3297C75.0005 16.7069 58.2008 0 37.4898 0C24.0886 0 12.3758 7.02327 5.75 17.5369C9.98198 26.3266 19.3222 41.8204 34.5403 47.141L34.5189 47.1623Z" fill="#F9F7EA"/>
<path d="M72.713 50.3975C62.0048 51.7809 47.77 52.1427 34.5184 47.5031C19.3217 42.1611 9.9601 26.6887 5.72813 17.8989C2.11599 23.624 0 30.3918 0 37.6705C0 58.2934 16.7783 75.0002 37.4893 75.0002C53.7119 75.0002 67.4765 64.742 72.713 50.3762V50.3975Z" fill="#FFBF1D"/>
<path opacity="0.16" d="M27.1445 1.44711C27.1445 1.44711 56.234 1.06402 62.8385 25.4752C69.4429 49.8864 63.3087 64.5288 42.9396 74.5955C56.4264 73.4037 75.0428 59.8254 75 36.4145C74.9573 13.0036 52.1944 -4.98025 27.1445 1.44711Z" fill="url(#paint0_linear_393_3962)"/>
<path d="M58.3082 45.2895C62.3098 45.2895 65.5538 41.4018 65.5538 36.6062C65.5538 31.8105 62.3098 27.9229 58.3082 27.9229C54.3065 27.9229 51.0625 31.8105 51.0625 36.6062C51.0625 41.4018 54.3065 45.2895 58.3082 45.2895Z" fill="white"/>
</g>
<defs>
<linearGradient id="paint0_linear_393_3962" x1="66.4292" y1="78.3838" x2="38.7763" y2="-16.579" gradientUnits="userSpaceOnUse">
<stop stop-color="#E38B00"/>
<stop offset="1" stop-color="#FFF2FF"/>
</linearGradient>
<clipPath id="clip0_393_3962">
<rect width="75" height="75" fill="white"/>
</clipPath>
</defs>
</svg>
