<svg width="230" height="305" viewBox="0 0 230 305" fill="none" xmlns="http://www.w3.org/2000/svg">
<g clip-path="url(#clip0_393_4073)">
<path d="M21.9392 222.299C21.9392 222.299 10.3427 240.202 13.4769 257.452C16.6111 274.703 24.4465 290.407 42.914 298.887C61.3815 307.368 81.7536 303.284 93.0367 294.804C99.6184 289.465 105.549 282.241 105.887 280.984C106.658 278.109 99.3291 265.401 68.7107 244.527C43.348 227.228 24.0849 219.738 21.9392 222.299Z" fill="#FF9200"/>
<path d="M103.407 281.287C105.864 277.749 89.8093 262.294 67.5483 246.766C45.2873 231.238 25.2494 221.518 22.7925 225.055C20.3355 228.593 36.3899 244.048 58.6509 259.576C80.9119 275.104 100.95 284.824 103.407 281.287Z" fill="#FFCA80"/>
<path d="M21.9399 222.299C21.9399 222.299 14.0803 235.104 13.1883 246.991C12.5856 254.94 13.4053 259.82 16.9734 270.427C12.8026 244.744 24.9535 234.863 24.9535 234.863C24.9535 234.863 18.4441 227.47 21.964 222.299H21.9399Z" fill="url(#paint0_linear_393_4073)"/>
<path opacity="0.4" d="M73.0262 271.9C73.0262 271.9 83.6824 279.752 94.9413 282.41C75.6782 297.8 52.8711 302.27 52.8711 302.27L44.457 299.588C44.457 299.588 65.4801 283.062 73.0021 271.925L73.0262 271.9Z" fill="url(#paint1_linear_393_4073)"/>
<path d="M141.231 292.848C141.231 292.848 159.192 306.063 176.671 304.952C197.646 303.623 211.774 292.171 220.694 273.882C229.639 255.592 225.902 236.844 215.414 223.532C210.255 216.791 203.215 210.678 201.986 210.292C199.141 209.446 186.267 216.453 164.641 246.58C146.704 271.538 138.748 290.649 141.231 292.848Z" fill="#DCF3FD"/>
<path opacity="0.7" d="M179.184 256.841C195.309 235.452 205.693 216.078 202.378 213.569C199.064 211.059 183.305 226.364 167.181 247.753C151.056 269.143 140.671 288.516 143.986 291.026C147.301 293.535 163.06 278.23 179.184 256.841Z" fill="white"/>
<path opacity="0.8" d="M212.184 258C216.497 257.911 219.899 253.253 219.783 247.597C219.667 241.94 216.076 237.427 211.763 237.516C207.45 237.605 204.047 242.263 204.164 247.919C204.28 253.575 207.871 258.089 212.184 258Z" fill="white"/>
<path opacity="0.4" d="M205.096 212.563C205.096 212.563 206.253 218.434 203.746 223.169C211.316 231.384 229.302 259.434 208.254 291.495C229.109 267.914 234.75 239.912 205.096 212.539V212.563Z" fill="white"/>
<path opacity="0.4" d="M177.178 264.918C177.178 264.918 165.967 278.883 155.359 287.242C171.175 298.308 187.087 303.309 187.087 303.309L195.67 300.241L177.178 264.894V264.918Z" fill="white"/>
<path d="M45.4217 45.7355C45.4217 45.7355 44.3127 46.1704 37.7792 47.8857C33.1744 49.0938 31.5591 49.8911 33.1503 56.5351C34.862 63.6141 48.9176 116.356 50.0266 123.58C51.232 131.432 57.9825 195.24 59.0674 201.183C60.08 206.74 61.189 206.402 63.2865 206.837C65.8662 207.368 69.145 205.918 73.34 205.121C77.535 204.324 128.67 191.036 136.409 189.2C143.087 187.605 214.354 176.95 214.691 174.123C215.39 168.228 196.947 110.751 195.741 102.053C193.981 89.2966 190.679 40.4444 188.629 32.254C186.218 22.5174 185.809 20.5121 180.794 21.1161C176.551 21.6235 170.355 22.5174 166.28 23.2905C162.712 23.967 45.3735 45.7596 45.3735 45.7596L45.4217 45.7355Z" fill="white"/>
<path d="M183.402 51.6507L170.666 47.5405L166.565 60.304L179.301 64.4142L183.402 51.6507Z" fill="#FFC49C"/>
<path d="M26.6074 92.2521L15.0195 98.9565L21.7098 110.569L33.2976 103.865L26.6074 92.2521Z" fill="#FFC49C"/>
<path d="M104.666 9.34971L93.0781 16.0542L99.7684 27.6667L111.356 20.9622L104.666 9.34971Z" fill="#FFDC6E"/>
<path d="M74.2553 186.441L68.375 198.486L80.3941 204.379L86.2745 192.334L74.2553 186.441Z" fill="#FF9FED"/>
<path d="M190.187 157.82L178.6 164.525L185.29 176.137L196.878 169.433L190.187 157.82Z" fill="#B7E28D"/>
<path d="M23.3615 140.009L29.2924 144.696L36.501 142.449L33.8972 149.553L38.2368 155.738L30.6907 155.448L26.1823 161.488L24.133 154.216L16.9727 151.775L23.2651 147.571L23.3615 140.009Z" fill="#FFDC6E"/>
<path d="M60.2724 19.4009L64.1299 22.4692L68.8311 20.9955L67.1435 25.6342L69.9642 29.669L65.046 29.4516L62.1047 33.4139L60.7787 28.6543L56.1016 27.0839L60.2001 24.3296L60.2724 19.4009Z" fill="#FFDC6E"/>
<path d="M191.474 31.8677L190.992 36.7964L194.753 39.9614L189.955 41.0244L188.099 45.5907L185.616 41.3385L180.697 41.0003L183.952 37.3038L182.771 32.52L187.279 34.477L191.474 31.8677Z" fill="#B7E28D"/>
<path d="M140.145 201.11V206.039L144.219 208.842L139.518 210.364L138.12 215.099L135.227 211.089L130.309 211.234L133.202 207.223L131.562 202.584L136.239 204.106L140.145 201.11Z" fill="#FFDC6E"/>
<path d="M223.395 71.4419L223.636 79.0041L230 83.0872L222.888 85.6482L220.984 92.9687L216.355 87.0011L208.809 87.4119L213.052 81.1785L210.303 74.1237L217.56 76.2256L223.395 71.4419Z" fill="#FFDC6E"/>
<path d="M51.7133 59.9175L51.1347 70.9829C51.0624 72.6017 49.9293 73.9788 48.3381 74.3654L39.707 76.8297L48.6515 77.6028C50.2668 77.6753 51.641 78.8109 52.0267 80.4054L54.6787 91.1568L55.2573 80.0914C55.3297 78.4726 56.4628 77.0955 58.054 76.7089L67.2154 74.1962L57.7406 73.4714C56.1253 73.3989 54.7511 72.2634 54.3653 70.6688L51.7133 59.9175Z" fill="#F8D100"/>
<path d="M199.237 127.035L198.658 138.101C198.586 139.719 197.453 141.096 195.861 141.483L187.23 143.947L196.175 144.721C197.79 144.793 199.164 145.929 199.55 147.523L202.202 158.274L202.781 147.209C202.853 145.59 203.986 144.213 205.577 143.827L214.739 141.314L205.264 140.589C203.649 140.517 202.274 139.381 201.889 137.786L199.237 127.035Z" fill="#F8D100"/>
<path d="M69.9634 53.3458L34.7642 30.8042L32.5703 36.8443L69.9634 53.3458Z" fill="#B7E28D"/>
<path d="M187.93 107.393L229.687 109.277L228.577 102.947L187.93 107.393Z" fill="#FFDC6E"/>
<path d="M41.5157 124.571L0 129.234L2.07338 135.322L41.5157 124.571Z" fill="#FFDC6E"/>
<path d="M171.44 0L157.602 52.8145L174.984 0.773131L171.44 0Z" fill="#FF9FED"/>
<path d="M105.477 170.137L92.2168 216.839H97.2556L105.477 170.137Z" fill="#FF9FED"/>
<path d="M163.121 166.972L178.093 190.48L173.801 192.268L163.121 166.972Z" fill="#B7E28D"/>
<g clip-path="url(#clip1_393_4073)">
<path d="M147.582 139.808C148.533 137.642 171.847 99.2 157.16 77.3833C154.606 73.0837 157.952 71.6059 159.152 70.8542C161.208 69.5739 162.141 64.2678 158.016 61.6817C154.676 59.5924 150.315 62.7008 149.817 65.6756C149.395 68.1916 146.375 68.5101 145.187 68.249C145.187 68.249 123.476 62.4142 110.864 80.2497C98.2528 98.0853 91.8672 108.436 88.1955 108.596C84.5237 108.755 82.2888 108.596 82.2888 108.596C82.2888 108.596 76.5417 108.755 74.7857 111.94C73.0297 115.125 74.6261 120.061 76.861 122.928C79.096 125.794 98.2528 143.789 108.949 148.725C119.645 153.662 141.024 163.363 150.455 158.599C153.993 156.815 152.696 150.464 151.196 147.018C149.695 143.572 146.969 141.209 147.582 139.808ZM155.193 64.0513C156.541 64.0513 157.626 65.2615 157.626 66.7584C157.626 68.2553 156.534 69.4656 155.193 69.4656C153.852 69.4656 152.76 68.2553 152.76 66.7584C152.76 65.2615 153.852 64.0513 155.193 64.0513Z" fill="#E5E5E5"/>
<path d="M74.0329 116.52C74.0329 116.52 73.7455 113.653 82.9216 116.52C92.0977 119.386 105.361 124.03 115.009 129.654C124.058 134.935 145.022 148.127 146.056 157.522C146.056 157.522 146.848 160.013 144.939 159.994C143.029 159.975 126.12 160.089 105.354 146.783C84.5883 133.476 73.2858 121.106 74.0329 116.52Z" fill="#C1C1C1"/>
<path d="M105.871 128.367C105.871 128.367 78.6432 115.704 76.8169 118.093C74.9906 120.482 95.6417 138.12 103.541 142.872C120.118 152.847 137.972 158.229 141.963 157.548C145.954 156.866 135.807 143.044 105.871 128.367Z" fill="#919191"/>
<path d="M144.735 70.2619C144.735 70.2619 138.164 69.0389 134.014 72.6506C129.863 76.2623 107.066 113.335 107.066 113.335C107.066 113.335 129.595 120.845 145.029 138.553C151.414 128.342 159.824 104.557 159.607 95.0023C159.39 85.4476 154.677 73.3895 144.735 70.2555V70.2619Z" fill="#D8D8D8"/>
<path d="M113.586 144.719C117.979 144.865 121.798 142.113 123.184 138.19C122.903 137.998 122.609 137.807 122.309 137.61C121.102 140.005 118.107 144.508 112.992 143.604C110.361 143.241 109.601 139.667 112.571 139.757C115.119 139.833 119.231 139.241 121.804 137.279C120.138 136.183 118.318 135.017 116.951 134.228C114.889 133.036 109.87 130.412 106.415 128.622C105.042 130.246 104.18 132.317 104.103 134.597C103.918 140.005 108.165 144.54 113.592 144.725L113.586 144.719Z" fill="#DDDDDD"/>
<path d="M112.992 143.598C118.107 144.502 121.102 139.999 122.309 137.604C122.143 137.495 121.97 137.381 121.804 137.266C119.237 139.228 115.125 139.82 112.571 139.744C109.601 139.655 110.361 143.228 112.992 143.591V143.598Z" fill="#CECECE"/>
<path d="M134.172 68.9878C134.172 68.9878 121.944 69.7076 113.349 79.3388C110.552 82.6829 93.1445 108.799 93.1445 108.799L96.3373 109.596C96.3373 109.596 111.746 82.6829 118.01 77.7463C124.274 72.8097 128.565 70.5357 134.172 68.9878Z" fill="#CECECE"/>
</g>
<g clip-path="url(#clip2_393_4073)">
<path d="M160.456 142.707C160.618 143.307 161.249 143.662 161.858 143.497C174.558 140.058 171.26 126.367 171.227 126.224C171.226 126.218 171.224 126.213 171.223 126.207C171.062 125.613 170.449 125.259 169.837 125.413C169.225 125.567 168.851 126.183 169.003 126.785C169.12 127.263 171.781 138.47 161.268 141.317C160.659 141.482 160.294 142.108 160.456 142.707Z" fill="#D7D7D7"/>
<path d="M168.536 145.316C168.553 145.381 168.575 145.439 168.604 145.502C168.87 146.067 169.552 146.304 170.127 146.037C179.659 141.583 178.085 131.363 178.075 131.26C177.974 130.644 177.386 130.23 176.761 130.335C176.136 130.44 175.711 131.023 175.813 131.639C175.87 132.004 177.092 140.29 169.165 143.998C168.653 144.237 168.402 144.802 168.543 145.32L168.536 145.316Z" fill="#D7D7D7"/>
</g>
<g clip-path="url(#clip3_393_4073)">
<path d="M77.2908 96.5038C76.6767 96.5969 76.0968 96.1627 76.0022 95.5389C74.0298 82.5301 87.8882 80.0286 88.0325 80.001C88.0381 80.0001 88.0437 79.9993 88.0493 79.9984C88.6578 79.9062 89.2295 80.3242 89.3352 80.9463C89.441 81.5684 89.0279 82.1589 88.4155 82.2633C87.9316 82.3483 76.6026 84.4315 78.2353 95.2003C78.3299 95.8241 77.9049 96.4107 77.2908 96.5038Z" fill="#D7D7D7"/>
<path d="M71.6447 90.1607C71.5777 90.1709 71.5154 90.1745 71.4467 90.1733C70.8219 90.1578 70.3305 89.629 70.3428 88.9948C70.5756 78.4769 80.5634 75.7965 80.6613 75.7642C81.2659 75.6087 81.8818 75.9795 82.0378 76.5939C82.1938 77.2084 81.8314 77.8319 81.2268 77.9873C80.8699 78.0821 72.7945 80.3043 72.5962 89.0534C72.5847 89.6179 72.1686 90.0755 71.6382 90.1559L71.6447 90.1607Z" fill="#D7D7D7"/>
</g>
</g>
<defs>
<linearGradient id="paint0_linear_393_4073" x1="27.7019" y1="226.044" x2="9.60333" y2="268.587" gradientUnits="userSpaceOnUse">
<stop stop-color="#FFD073" stop-opacity="0.4"/>
<stop offset="1" stop-color="#FFA345" stop-opacity="0.6"/>
</linearGradient>
<linearGradient id="paint1_linear_393_4073" x1="50.3396" y1="310.823" x2="87.0649" y2="273.38" gradientUnits="userSpaceOnUse">
<stop stop-color="#FFF3D0" stop-opacity="0.4"/>
<stop offset="1" stop-color="#FFF0D0" stop-opacity="0.6"/>
</linearGradient>
<clipPath id="clip0_393_4073">
<rect width="230" height="305" fill="white"/>
</clipPath>
<clipPath id="clip1_393_4073">
<rect width="88" height="99" fill="white" transform="translate(74 61)"/>
</clipPath>
<clipPath id="clip2_393_4073">
<rect width="20" height="20" fill="white" transform="translate(176.037 123.733) rotate(74.8456)"/>
</clipPath>
<clipPath id="clip3_393_4073">
<rect width="20" height="20" fill="white" transform="matrix(-0.9887 0.149908 0.149908 0.9887 88.3711 74.5952)"/>
</clipPath>
</defs>
</svg>
