<svg width="145" height="192" viewBox="0 0 145 192" fill="none" xmlns="http://www.w3.org/2000/svg">
<g clip-path="url(#clip0_393_3572)">
<path d="M6.41602 118.984L89.6633 125.36V181.237L7.74423 166.311L9.12857 157.871L6.41602 118.984Z" fill="white"/>
<path d="M0.318359 31.3773L5.14483 118.892L89.6643 125.36V18.8115L0.318359 31.3773Z" fill="#AEE0FF"/>
<path d="M130.67 31.3774C130.67 31.3774 129.098 75.9897 127.976 92.1988C126.386 115.025 111.195 125.361 89.6821 125.361V167.073C89.6821 167.073 88.7281 176.981 82.1992 179.695V192.019L137.217 165.79L145 35.6528L130.67 31.3774Z" fill="#C9C9C9"/>
<path d="M0.317896 31.3773C0.317896 31.3773 -1.53412 20.6146 3.64779 19.6852C8.8297 18.7557 89.6638 0 89.6638 0V18.8115L0.317896 31.3773Z" fill="#FF5F5F"/>
<path d="M89.6641 0L145 27.1019V35.634L89.6641 18.8115V0Z" fill="#CC3A3A"/>
<path d="M82.1812 192L6.15491 175.233L6.08008 165.995L82.1812 179.676V192Z" fill="#E0E0E0"/>
<path d="M12.0467 164.025L10.2695 139.376C10.2695 139.376 10.8308 128.576 21.6997 129.153C32.5686 129.729 35.0941 141.328 35.0005 146.626C34.907 151.923 35.0005 169.229 35.0005 169.229L33.9342 168.988L33.8407 145.752C33.8407 145.752 30.7353 153.522 23.6452 158.708C16.5552 163.894 12.0654 164.025 12.0654 164.025H12.0467Z" fill="#B5B5B5"/>
<path d="M5.14453 118.892L7.72613 158.689C7.72613 158.689 8.10028 163.913 6.07989 165.995L7.74484 166.311C7.74484 166.311 9.42849 165.251 9.12918 157.872C8.82986 150.492 6.41663 118.985 6.41663 118.985L5.14453 118.892Z" fill="#E0E0E0"/>
<path d="M27.3491 31.6562L4.05859 34.5375L5.92932 71.0823L7.96841 38.1994L27.3491 31.6562Z" fill="white"/>
<path d="M63.8671 170.438C73.517 170.438 81.3397 160.925 81.3397 149.191C81.3397 137.457 73.517 127.944 63.8671 127.944C54.2173 127.944 46.3945 137.457 46.3945 149.191C46.3945 160.925 54.2173 170.438 63.8671 170.438Z" fill="#BCBCBC"/>
<path d="M63.1927 167.333C71.2825 167.333 77.8405 159.21 77.8405 149.191C77.8405 139.171 71.2825 131.048 63.1927 131.048C55.103 131.048 48.5449 139.171 48.5449 149.191C48.5449 159.21 55.103 167.333 63.1927 167.333Z" fill="white"/>
<path d="M46.0195 142.053L49.7984 136.644L71.873 154.358L66.5414 160.864L46.0195 142.053Z" fill="white"/>
<path d="M49.8929 137.332L71.2192 154.433L66.4863 160.195L46.6378 141.997L49.8929 137.332ZM49.7058 135.975L45.4219 142.127L66.5985 161.552L72.5474 154.284L49.7058 135.975Z" fill="#C9C9C9"/>
<path d="M54.4009 137.778L49.668 135.975L72.5282 154.284L76.0452 154.879L54.4009 137.778Z" fill="#C9C9C9"/>
<path d="M69.6835 163.262L66.5781 161.552L72.527 154.284L76.044 154.879L69.6835 163.262Z" fill="#969696"/>
<path d="M33.766 143.856C33.766 143.856 32.0075 129.45 20.1471 130.138C17.5655 130.119 13.8989 132.573 12.8887 135.194C21.6063 141.997 30.1368 149.711 30.1368 149.711C30.1368 149.711 32.7184 146.57 33.766 143.837V143.856Z" fill="#7A7A7A"/>
<path d="M27.7238 155.046L33.8785 156.793L33.8224 145.752C33.8224 145.752 31.7084 150.566 27.7051 155.046H27.7238Z" fill="#DDDDDD"/>
<path d="M89.6632 18.8116V125.342C89.6632 125.342 97.3706 125.472 105.789 124.059C114.207 122.647 125.656 116.085 127.302 100.117C129.846 71.9931 130.651 31.3402 130.651 31.3402L89.6445 18.793L89.6632 18.8116Z" fill="#4EB6EA"/>
<mask id="mask0_393_3572" style="mask-type:luminance" maskUnits="userSpaceOnUse" x="2" y="37" width="128" height="89">
<path d="M6.54736 118.873L89.8321 125.119C89.8321 125.119 106.8 124.989 113.572 120.639C120.344 116.29 121.878 114.301 124.59 106.475C128.799 94.2808 129.492 45.2445 129.492 45.2445L2.65625 37.7905L4.05929 71.0824L6.54736 118.873Z" fill="white"/>
</mask>
<g mask="url(#mask0_393_3572)">
<path d="M82.2752 79.0009C84.1646 75.432 84.6697 71.3797 84.7258 68.2754C83.6408 67.6992 82.4622 67.2716 81.1714 67.0857C75.26 66.2121 69.7413 70.2644 68.8621 76.1569C68.3009 79.9675 69.8161 83.5923 72.5474 85.9158C75.26 85.0794 80.0864 83.0904 82.2752 79.0009Z" fill="#F9F7EA"/>
<path d="M84.8366 68.2939C84.7805 71.3982 84.2754 75.4505 82.386 79.0195C80.2159 83.1089 75.3708 85.1165 72.6582 85.9344C74.1548 87.1984 76.0068 88.0906 78.102 88.4066C84.0135 89.2803 89.5322 85.228 90.4114 79.3355C91.1036 74.7255 88.7464 70.3759 84.8366 68.2939Z" fill="#32B3E0"/>
<path opacity="0.16" d="M68.8424 79.1685C68.8424 79.1685 69.9648 70.8966 77.2607 70.0601C84.5565 69.2237 88.485 71.5844 90.5241 77.7929C90.7486 73.908 87.6432 68.0526 80.9273 67.0674C74.2114 66.0822 68.0754 71.7889 68.8424 79.1685Z" fill="url(#paint0_linear_393_3572)"/>
<path d="M82.7535 72.1762C82.9237 71.0389 81.9433 69.9516 80.5637 69.7478C79.1841 69.5439 77.9277 70.3005 77.7575 71.4378C77.5872 72.5751 78.5676 73.6624 79.9472 73.8663C81.3268 74.0702 82.5832 73.3135 82.7535 72.1762Z" fill="white"/>
<path d="M71.1428 107.162C68.5238 110.248 67.1768 114.114 66.4473 117.126C67.3826 117.925 68.4489 118.576 69.6649 119.04C75.2584 121.141 81.5253 118.334 83.6392 112.776C85.0049 109.17 84.294 105.304 82.124 102.459C79.2992 102.701 74.1547 103.631 71.1428 107.162Z" fill="#F9F7EA"/>
<path d="M66.374 117.089C67.0848 114.077 68.4505 110.211 71.0695 107.125C74.0626 103.593 79.2258 102.664 82.0506 102.422C80.8534 100.861 79.2446 99.5969 77.2616 98.8533C71.6681 96.7528 65.4012 99.5597 63.2873 105.118C61.6223 109.467 63.0066 114.226 66.374 117.089Z" fill="#49BF79"/>
<path opacity="0.16" d="M84.3125 109.839C84.3125 109.839 81.4503 117.702 74.1358 116.977C66.8212 116.252 63.4913 113.111 62.8366 106.624C61.7703 110.36 63.5662 116.754 69.9266 119.134C76.2871 121.513 83.5081 117.238 84.3125 109.858V109.839Z" fill="url(#paint1_linear_393_3572)"/>
<path d="M73.9577 115.531C74.3671 114.455 73.6415 113.186 72.3369 112.695C71.0323 112.205 69.6429 112.679 69.2335 113.755C68.8241 114.83 69.5497 116.1 70.8543 116.59C72.1589 117.08 73.5483 116.606 73.9577 115.531Z" fill="white"/>
<path d="M64.3336 75.1903C60.7231 77.0306 57.9544 80.0605 56.1211 82.5513C56.6636 83.6481 57.3932 84.6704 58.3473 85.5627C62.6873 89.6521 69.5342 89.4848 73.6685 85.1723C76.3436 82.384 77.2042 78.5548 76.3062 75.0788C73.6124 74.2051 68.5053 73.0712 64.3523 75.1903H64.3336Z" fill="#F9F7EA"/>
<path d="M56.0653 82.4956C57.8986 79.9861 60.6673 76.9562 64.2778 75.1346C68.4308 73.0341 73.5378 74.168 76.2317 75.023C75.7453 73.127 74.7351 71.3425 73.2198 69.8926C68.8797 65.8032 62.0329 65.9705 57.8986 70.283C54.6622 73.6661 54.0823 78.5548 56.0653 82.4956Z" fill="#FFBF1D"/>
<path opacity="0.16" d="M75.428 82.7372C75.428 82.7372 69.7223 88.8714 63.2683 85.3954C56.8143 81.9193 54.9622 77.7369 56.9078 71.4912C54.4759 74.5397 53.6153 81.1014 58.554 85.7485C63.4928 90.3957 71.7988 89.2432 75.4467 82.7372H75.428Z" fill="url(#paint2_linear_393_3572)"/>
<path d="M63.6646 83.9582C64.462 83.125 64.2891 81.6753 63.2783 80.7203C62.2676 79.7652 60.8018 79.6664 60.0044 80.4996C59.207 81.3329 59.3799 82.7825 60.3906 83.7376C61.4014 84.6927 62.8672 84.7914 63.6646 83.9582Z" fill="white"/>
<path d="M95.3316 77.8485C91.7211 79.6888 88.9525 82.7187 87.1191 85.2095C87.6617 86.3063 88.3912 87.3286 89.3453 88.2209C93.6854 92.3103 100.532 92.143 104.667 87.8305C107.342 85.0422 108.202 81.213 107.304 77.737C104.61 76.8633 99.5034 75.7294 95.3503 77.8485H95.3316Z" fill="#F9F7EA"/>
<path d="M87.0438 85.1538C88.8771 82.6444 91.6458 79.6144 95.2563 77.7928C99.4093 75.6923 104.516 76.8262 107.21 77.6812C106.724 75.7852 105.714 74.0007 104.198 72.5508C99.8583 68.4614 93.0114 68.6287 88.8771 72.9412C85.6407 76.3243 85.0608 81.213 87.0438 85.1538Z" fill="#FFBF1D"/>
<path opacity="0.16" d="M106.407 85.3954C106.407 85.3954 100.701 91.5296 94.2468 88.0536C87.7928 84.5775 85.9408 80.3951 87.8863 74.1494C85.4544 77.1979 84.5938 83.7596 89.5326 88.4068C94.4713 93.0539 102.777 91.9014 106.425 85.3954H106.407Z" fill="url(#paint3_linear_393_3572)"/>
<path d="M94.6392 86.6262C95.4366 85.793 95.2637 84.3433 94.2529 83.3882C93.2422 82.4332 91.7764 82.3344 90.979 83.1676C90.1816 84.0008 90.3545 85.4505 91.3653 86.4056C92.376 87.3606 93.8418 87.4594 94.6392 86.6262Z" fill="white"/>
<path d="M19.679 67.6807C15.7131 68.5171 12.2523 70.7477 9.82031 72.6809C10.0635 73.8706 10.5125 75.0603 11.1859 76.157C14.3101 81.2316 20.9698 82.8302 26.0769 79.726C29.3881 77.7184 31.2027 74.2424 31.2401 70.6548C28.8643 69.1305 24.2249 66.7141 19.6603 67.6807H19.679Z" fill="#F9F7EA"/>
<path d="M9.78447 72.6065C12.2164 70.6547 15.6773 68.4427 19.6432 67.6062C24.2078 66.6396 28.8472 69.0561 31.223 70.5804C31.2417 68.6286 30.7366 66.6396 29.6329 64.8551C26.5088 59.7805 19.849 58.1819 14.7419 61.2862C10.7385 63.7213 8.90523 68.3126 9.78447 72.6251V72.6065Z" fill="#FFBF1D"/>
<path opacity="0.16" d="M28.4346 77.8111C28.4346 77.8111 21.3258 82.2723 15.9943 77.2534C10.6627 72.2345 9.97052 67.7175 13.4501 62.1968C10.3073 64.5017 7.76307 70.6359 11.3362 76.3983C14.9092 82.1608 23.234 83.1645 28.4346 77.8297V77.8111Z" fill="url(#paint4_linear_393_3572)"/>
<path d="M16.745 75.9908C17.7322 75.3908 17.9425 73.946 17.2148 72.7637C16.487 71.5814 15.0968 71.1093 14.1097 71.7092C13.1225 72.3091 12.9122 73.7539 13.6399 74.9362C14.3677 76.1185 15.7579 76.5907 16.745 75.9908Z" fill="white"/>
<path d="M88.597 111.512C84.6311 112.349 81.1702 114.579 78.7383 116.512C78.9815 117.702 79.4304 118.892 80.1039 119.989C83.228 125.063 89.8878 126.662 94.9949 123.558C98.3061 121.55 100.121 118.074 100.158 114.486C97.7823 112.962 93.1429 110.546 88.5783 111.512H88.597Z" fill="#F9F7EA"/>
<path d="M78.7005 116.438C81.1324 114.486 84.5933 112.274 88.5592 111.438C93.1238 110.471 97.7632 112.888 100.139 114.412C100.158 112.46 99.6526 110.471 98.5489 108.687C95.4248 103.612 88.765 102.013 83.6579 105.118C79.6546 107.553 77.8212 112.144 78.7005 116.457V116.438Z" fill="#FFBF1D"/>
<path opacity="0.16" d="M97.333 121.662C97.333 121.662 90.2243 126.123 84.8927 121.104C79.5611 116.085 78.869 111.568 82.3485 106.047C79.2057 108.352 76.6615 114.487 80.2346 120.249C83.8077 126.011 92.1324 127.015 97.333 121.68V121.662Z" fill="url(#paint5_linear_393_3572)"/>
<path d="M85.6494 119.841C86.6365 119.241 86.8468 117.796 86.1191 116.614C85.3913 115.431 84.0011 114.959 83.014 115.559C82.0268 116.159 81.8165 117.604 82.5442 118.786C83.272 119.969 84.6622 120.441 85.6494 119.841Z" fill="white"/>
<path d="M33.1859 75.0417C29.9308 77.4396 27.7234 80.8971 26.3203 83.6667C27.0499 84.6519 27.9291 85.5442 29.0142 86.2505C33.9716 89.5779 40.7062 88.2581 44.0548 83.3322C46.2248 80.1349 46.4119 76.2128 44.9527 72.9412C42.1467 72.5323 36.9086 72.272 33.1859 75.0417Z" fill="#F9F7EA"/>
<path d="M26.2455 83.6296C27.6299 80.8599 29.856 77.4024 33.1111 75.0045C36.8525 72.2349 42.0906 72.5137 44.878 72.904C44.0736 71.1196 42.7828 69.5209 41.043 68.3499C36.0856 65.0225 29.3509 66.3423 26.0023 71.2683C23.3833 75.1347 23.6452 80.0606 26.2455 83.6296Z" fill="#FF1F1F"/>
<path opacity="0.16" d="M45.3831 80.6366C45.3831 80.6366 40.7811 87.6259 33.8407 85.2651C26.9003 82.9044 24.3561 79.0938 25.2167 72.625C23.3272 76.0267 23.5891 82.6442 29.2387 86.399C34.8883 90.1539 42.895 87.6259 45.3831 80.6366Z" fill="url(#paint6_linear_393_3572)"/>
<path d="M34.003 83.8089C34.6489 82.8549 34.2343 81.4544 33.077 80.6808C31.9197 79.9072 30.458 80.0535 29.8121 81.0075C29.1662 81.9615 29.5807 83.362 30.738 84.1356C31.8953 84.9092 33.3571 84.7629 34.003 83.8089Z" fill="white"/>
<path d="M97.9706 97.2736C95.7444 100.638 94.8652 104.635 94.5098 107.72C95.5387 108.389 96.6798 108.929 97.9332 109.226C103.751 110.639 109.607 107.125 111.047 101.344C111.964 97.6082 110.804 93.8533 108.297 91.2881C105.528 91.8643 100.515 93.4072 97.9706 97.2736Z" fill="#F9F7EA"/>
<path d="M94.4149 107.701C94.7704 104.616 95.6496 100.619 97.8758 97.2547C100.42 93.3883 105.434 91.8455 108.202 91.2693C106.837 89.8565 105.078 88.797 103.02 88.2951C97.2023 86.8824 91.3469 90.3956 89.9065 96.1766C88.784 100.694 90.7296 105.248 94.4149 107.701Z" fill="#FF1F1F"/>
<path opacity="0.16" d="M111.345 98.3703C111.345 98.3703 109.455 106.512 102.104 106.661C94.7516 106.809 91.0662 104.096 89.6258 97.7197C89.0271 101.568 91.5713 107.683 98.175 109.282C104.779 110.88 111.42 105.787 111.345 98.3517V98.3703Z" fill="url(#paint7_linear_393_3572)"/>
<path d="M101.743 105.243C102.02 104.126 101.146 102.953 99.7918 102.621C98.4375 102.29 97.1153 102.926 96.8387 104.043C96.5621 105.159 97.4358 106.333 98.7902 106.664C100.145 106.996 101.467 106.359 101.743 105.243Z" fill="white"/>
<path d="M113.366 97.738C117.407 98.1655 121.392 97.1431 124.31 96.0464C124.46 94.8382 124.403 93.5741 124.104 92.3287C122.738 86.5477 116.902 82.9416 111.084 84.2985C107.305 85.1722 104.48 87.9233 103.32 91.3064C105.098 93.4998 108.745 97.2361 113.385 97.738H113.366Z" fill="#F9F7EA"/>
<path d="M124.328 96.1395C121.41 97.2362 117.425 98.2586 113.384 97.831C108.745 97.3291 105.097 93.5928 103.32 91.3994C102.684 93.2397 102.534 95.2844 103.02 97.3291C104.386 103.11 110.223 106.716 116.041 105.359C120.605 104.3 123.804 100.508 124.328 96.1395Z" fill="#FFBF1D"/>
<path opacity="0.16" d="M108.277 85.3952C108.277 85.3952 116.434 83.3691 119.913 89.8007C123.393 96.2323 122.626 100.731 117.575 104.895C121.298 103.686 125.638 98.6488 124.066 92.0685C122.495 85.4882 114.9 81.9378 108.296 85.3766L108.277 85.3952Z" fill="url(#paint8_linear_393_3572)"/>
<path d="M119.946 95.6585C121.073 95.3961 121.728 94.0896 121.41 92.7402C121.092 91.3908 119.92 90.5097 118.794 90.772C117.667 91.0344 117.012 92.3409 117.33 93.6903C117.648 95.0397 118.82 95.9209 119.946 95.6585Z" fill="white"/>
<path d="M55.7667 84.6332C51.7633 84.0383 47.7412 84.9306 44.7668 85.8972C44.5797 87.1054 44.5797 88.3509 44.8229 89.6149C45.9641 95.4516 51.6511 99.2623 57.5251 98.1284C61.3227 97.4034 64.2598 94.7639 65.5693 91.4179C63.8856 89.1687 60.3686 85.2838 55.7667 84.6146V84.6332Z" fill="#F9F7EA"/>
<path d="M44.748 85.8042C47.7038 84.819 51.7259 83.9453 55.7479 84.5402C60.3499 85.2093 63.8669 89.0943 65.5505 91.3435C66.2614 89.5219 66.4859 87.4957 66.0743 85.4324C64.9332 79.5956 59.2462 75.785 53.3721 76.9189C48.7701 77.8111 45.4402 81.4731 44.748 85.8228V85.8042Z" fill="#49BF79"/>
<path opacity="0.16" d="M60.3874 97.162C60.3874 97.162 52.1563 98.8722 48.9386 92.3104C45.721 85.7487 46.6376 81.2875 51.8569 77.3096C48.0968 78.3877 43.5696 83.2393 44.8791 89.8754C46.1886 96.5114 53.6341 100.341 60.3874 97.162Z" fill="url(#paint9_linear_393_3572)"/>
<path d="M50.0771 91.3956C51.213 91.1762 51.9181 89.8955 51.652 88.535C51.3858 87.1746 50.2493 86.2496 49.1134 86.469C47.9775 86.6884 47.2724 87.9691 47.5385 89.3295C47.8047 90.69 48.9412 91.615 50.0771 91.3956Z" fill="white"/>
<path d="M109.157 109.523C108.689 105.526 106.781 101.883 105.06 99.2993C103.844 99.4294 102.628 99.764 101.449 100.322C96.0802 102.943 93.854 109.393 96.473 114.728C98.1754 118.185 101.487 120.323 105.078 120.695C106.837 118.483 109.68 114.114 109.138 109.523H109.157Z" fill="#F9F7EA"/>
<path d="M105.154 99.2623C106.875 101.846 108.784 105.471 109.251 109.486C109.794 114.077 106.95 118.464 105.192 120.658C107.156 120.862 109.176 120.546 111.085 119.635C116.453 117.014 118.68 110.564 116.061 105.229C114.003 101.047 109.569 98.7976 105.173 99.2623H105.154Z" fill="#49BF79"/>
<path opacity="0.16" d="M98.1942 117.219C98.1942 117.219 94.3966 109.765 99.9152 104.969C105.434 100.173 110.036 99.8944 115.255 103.872C113.235 100.545 107.323 97.4593 101.225 100.452C95.1262 103.445 93.3303 111.586 98.1942 117.219Z" fill="url(#paint10_linear_393_3572)"/>
<path d="M104.308 106.583C105.561 105.974 106.164 104.642 105.655 103.61C105.146 102.577 103.718 102.234 102.465 102.844C101.213 103.453 100.61 104.784 101.119 105.817C101.628 106.85 103.056 107.193 104.308 106.583Z" fill="white"/>
<path d="M20.7471 88.0721C16.7438 87.4773 12.7217 88.3695 9.74726 89.3361C9.56019 90.5444 9.56019 91.7898 9.80338 93.0538C10.9445 98.8906 16.6315 102.701 22.5056 101.567C26.3032 100.842 29.2402 98.2028 30.5497 94.8569C28.8661 92.6077 25.3491 88.7227 20.7471 88.0535V88.0721Z" fill="#F9F7EA"/>
<path d="M9.74609 89.2431C12.7018 88.2579 16.7239 87.3843 20.746 87.9791C25.348 88.6483 28.8649 92.5333 30.5486 94.7825C31.2594 92.9608 31.4839 90.9347 31.0724 88.8714C29.9312 83.0346 24.2442 79.224 18.3701 80.3579C13.7682 81.2501 10.4383 84.912 9.74609 89.2617V89.2431Z" fill="#32B3E0"/>
<path opacity="0.16" d="M25.3855 100.601C25.3855 100.601 17.1543 102.311 13.9367 95.7489C10.719 89.1872 11.6357 84.726 16.855 80.748C13.0948 81.8262 8.56767 86.6778 9.87718 93.3138C11.1867 99.9499 18.6322 103.779 25.3855 100.601Z" fill="url(#paint11_linear_393_3572)"/>
<path d="M15.0693 94.8273C16.2052 94.6079 16.9103 93.3272 16.6441 91.9667C16.378 90.6062 15.2414 89.6812 14.1055 89.9006C12.9697 90.12 12.2646 91.4007 12.5307 92.7612C12.7968 94.1216 13.9334 95.0467 15.0693 94.8273Z" fill="white"/>
<path d="M108.669 78.5361C104.947 76.956 100.831 76.7702 97.7069 76.9746C97.2206 78.0899 96.8838 79.2982 96.809 80.5994C96.4161 86.5291 100.925 91.6595 106.911 92.0499C110.783 92.3101 114.282 90.507 116.396 87.6072C115.348 85.0048 112.953 80.3577 108.669 78.5361Z" fill="#F9F7EA"/>
<path d="M97.707 76.8819C100.812 76.6775 104.928 76.8634 108.669 78.4434C112.953 80.265 115.348 84.8936 116.396 87.5145C117.555 85.9345 118.285 84.0199 118.435 81.938C118.828 76.0083 114.319 70.8779 108.333 70.4875C103.656 70.1715 99.4842 72.8668 97.707 76.9005V76.8819Z" fill="#32B3E0"/>
<path opacity="0.16" d="M109.904 91.8269C109.904 91.8269 101.505 91.3807 100.083 84.2242C98.6614 77.0676 100.7 72.9782 106.762 70.4688C102.852 70.5431 97.2209 74.1121 96.7906 80.8411C96.3604 87.5701 102.571 93.1838 109.923 91.8269H109.904Z" fill="url(#paint12_linear_393_3572)"/>
<path d="M103.696 81.2608C103.789 79.8779 102.928 78.6951 101.773 78.6189C100.618 78.5427 99.6075 79.602 99.515 80.9848C99.4226 82.3677 100.284 83.5505 101.438 83.6267C102.593 83.7029 103.604 82.6437 103.696 81.2608Z" fill="white"/>
<path d="M87.4946 96.4742C87.9249 92.4591 86.896 88.4997 85.7923 85.5999C84.5763 85.4512 83.3042 85.507 82.0508 85.8044C76.2329 87.1613 72.6037 92.9609 73.9693 98.7419C74.8485 102.497 77.6172 105.304 81.0219 106.456C83.2294 104.69 86.9895 101.065 87.4946 96.4556V96.4742Z" fill="#F9F7EA"/>
<path d="M85.8856 85.5996C86.9893 88.4994 88.0182 92.4587 87.5879 96.4739C87.0828 101.084 83.3227 104.709 81.1152 106.474C82.9673 107.106 85.025 107.255 87.0828 106.772C92.9008 105.415 96.53 99.6153 95.1644 93.8343C94.0981 89.2987 90.2818 86.1201 85.8856 85.5996Z" fill="#32B3E0"/>
<path opacity="0.16" d="M75.0538 101.549C75.0538 101.549 73.0147 93.4443 79.4874 89.9869C85.9601 86.5294 90.4873 87.2916 94.6777 92.3104C93.4617 88.6113 88.3921 84.2988 81.7697 85.8602C75.1473 87.4217 71.5742 94.9686 75.0351 101.53L75.0538 101.549Z" fill="url(#paint13_linear_393_3572)"/>
<path d="M83.4131 92.5526C84.7711 92.2364 85.6579 91.0725 85.3938 89.9531C85.1298 88.8336 83.8149 88.1824 82.4569 88.4987C81.0989 88.8149 80.2121 89.9788 80.4761 91.0983C80.7402 92.2177 82.0551 92.8689 83.4131 92.5526Z" fill="white"/>
<path d="M52.2684 102.813C52.0626 106.846 53.316 110.731 54.5694 113.575C55.7854 113.65 57.0575 113.538 58.2921 113.166C64.0353 111.494 67.3277 105.508 65.6441 99.8014C64.5591 96.1023 61.6407 93.4441 58.1799 92.4775C56.0847 94.355 52.5303 98.1842 52.2871 102.813H52.2684Z" fill="#F9F7EA"/>
<path d="M54.4759 113.594C53.2225 110.75 51.9691 106.865 52.1749 102.832C52.4181 98.203 55.9725 94.3738 58.0677 92.4963C56.1782 91.9573 54.1204 91.9387 52.0813 92.5149C46.3382 94.1879 43.0457 100.173 44.7294 105.88C46.0576 110.341 50.0236 113.315 54.4572 113.576L54.4759 113.594Z" fill="#FF1F1F"/>
<path opacity="0.16" d="M64.39 97.0503C64.39 97.0503 66.8781 105.043 60.6111 108.835C54.3442 112.627 49.7796 112.144 45.3086 107.348C46.7303 110.973 52.0245 114.988 58.5533 113.074C65.0822 111.159 68.225 103.426 64.39 97.0503Z" fill="url(#paint14_linear_393_3572)"/>
<path d="M57.7448 110.505C59.083 110.114 59.9035 108.903 59.5773 107.8C59.2512 106.697 57.902 106.119 56.5637 106.51C55.2255 106.901 54.405 108.112 54.7311 109.215C55.0573 110.318 56.4065 110.896 57.7448 110.505Z" fill="white"/>
<path d="M17.6601 107.33C15.4339 110.694 14.5547 114.691 14.1992 117.776C15.2281 118.446 16.3693 118.985 17.6226 119.282C23.4406 120.695 29.296 117.182 30.7364 111.401C31.6531 107.664 30.4932 103.909 27.9865 101.344C25.2178 101.92 20.2042 103.463 17.6601 107.33Z" fill="#F9F7EA"/>
<path d="M14.1239 117.758C14.4794 114.672 15.3586 110.676 17.5848 107.311C20.129 103.445 25.1425 101.902 27.9112 101.326C26.5455 99.9132 24.7871 98.8536 22.7293 98.3518C16.9113 96.939 11.0559 100.452 9.61547 106.233C8.49303 110.75 10.4386 115.304 14.1239 117.758Z" fill="#32B3E0"/>
<path opacity="0.16" d="M31.0539 108.426C31.0539 108.426 29.1644 116.568 21.8125 116.717C14.4605 116.866 10.7752 114.152 9.33474 107.776C8.73611 111.624 11.2803 117.739 17.884 119.338C24.4876 120.936 31.1287 115.843 31.0539 108.408V108.426Z" fill="url(#paint15_linear_393_3572)"/>
<path d="M21.4581 115.297C21.7347 114.18 20.861 113.007 19.5067 112.675C18.1523 112.344 16.8302 112.981 16.5536 114.097C16.277 115.214 17.1507 116.387 18.505 116.719C19.8594 117.05 21.1815 116.413 21.4581 115.297Z" fill="white"/>
<path d="M43.4 90.9161C46.2997 88.0906 48.002 84.373 49.0122 81.436C48.1517 80.5623 47.1602 79.8002 45.9816 79.2425C40.6127 76.6216 34.1212 78.8336 31.4835 84.1871C29.7811 87.6445 30.1179 91.5481 32.026 94.5966C34.8508 94.6152 40.0889 94.1691 43.4 90.9347V90.9161Z" fill="#F9F7EA"/>
<path d="M49.0878 81.4732C48.0963 84.4102 46.3752 88.1278 43.4756 90.9533C40.1457 94.2063 34.9264 94.6524 32.1016 94.6152C33.1305 96.2696 34.627 97.6823 36.5352 98.6117C41.9042 101.233 48.3956 99.0207 51.0333 93.6672C53.0911 89.4848 52.1745 84.6332 49.0878 81.4546V81.4732Z" fill="#49BF79"/>
<path opacity="0.16" d="M30.5488 87.0127C30.5488 87.0127 34.1406 79.4658 41.3429 80.86C48.5452 82.2541 51.5758 85.693 51.6132 92.2175C53.0163 88.5928 51.8377 82.0682 45.7391 79.1127C39.6406 76.1571 32.0454 79.7447 30.5488 87.0127Z" fill="url(#paint16_linear_393_3572)"/>
<path d="M45.9323 84.566C46.4412 83.5333 45.8383 82.2021 44.5856 81.5926C43.333 80.9831 41.9049 81.3261 41.396 82.3587C40.8872 83.3914 41.4901 84.7226 42.7428 85.3321C43.9954 85.9416 45.4234 85.5986 45.9323 84.566Z" fill="white"/>
<path d="M36.1415 103.054C39.9017 101.567 42.951 98.7977 45.0088 96.4742C44.5598 95.3403 43.9425 94.2436 43.0819 93.277C39.1534 88.7972 32.3066 88.3324 27.7981 92.236C24.8798 94.764 23.6638 98.5003 24.225 102.032C26.8253 103.147 31.8202 104.746 36.1415 103.036V103.054Z" fill="#F9F7EA"/>
<path d="M45.0846 96.5669C43.008 98.8904 39.9775 101.642 36.2173 103.147C31.8959 104.857 26.9011 103.259 24.3008 102.143C24.6001 104.077 25.4419 105.954 26.8263 107.534C30.7548 112.014 37.6016 112.479 42.1101 108.575C45.6458 105.508 46.6934 100.694 45.0846 96.5855V96.5669Z" fill="#FFBF1D"/>
<path opacity="0.16" d="M25.8164 94.5224C25.8164 94.5224 32.0833 88.9458 38.1819 93.0167C44.2805 97.0876 45.7209 101.419 43.2142 107.441C45.9267 104.634 47.3859 98.1843 42.9148 93.0911C38.4438 87.9978 30.0442 88.3882 25.8164 94.5038V94.5224Z" fill="url(#paint17_linear_393_3572)"/>
<path d="M40.98 98.1665C41.8524 97.4111 41.8168 95.9517 40.9004 94.9068C39.9841 93.862 38.534 93.6273 37.6616 94.3827C36.7892 95.1381 36.8249 96.5975 37.7412 97.6424C38.6576 98.6872 40.1076 98.9219 40.98 98.1665Z" fill="white"/>
<path d="M59.6005 104.095C63.6225 103.631 67.2892 101.735 69.8895 100.025C69.7585 98.8163 69.4218 97.608 68.8606 96.4369C66.2229 91.1021 59.7314 88.89 54.3625 91.4924C50.8829 93.184 48.7316 96.4741 48.3574 100.043C50.5836 101.79 54.9798 104.616 59.6005 104.077V104.095Z" fill="#F9F7EA"/>
<path d="M69.9281 100.099C67.3278 101.809 63.6798 103.705 59.6391 104.17C55.0184 104.709 50.6035 101.883 48.396 100.136C48.1902 102.088 48.5083 104.095 49.4249 105.991C52.0626 111.326 58.5541 113.538 63.923 110.936C68.1322 108.891 70.3958 104.486 69.9281 100.117V100.099Z" fill="#FFBF1D"/>
<path opacity="0.16" d="M51.8555 93.1837C51.8555 93.1837 59.3571 89.4103 64.1836 94.8939C69.01 100.377 69.2906 104.95 65.2873 110.136C68.6359 108.129 71.7413 102.255 68.7294 96.1951C65.7176 90.1352 57.5238 88.3508 51.8555 93.1837Z" fill="url(#paint18_linear_393_3572)"/>
<path d="M65.5366 100.591C66.5759 100.086 66.9211 98.6668 66.3077 97.4221C65.6943 96.1774 64.3546 95.5783 63.3153 96.0839C62.2761 96.5896 61.9309 98.0085 62.5443 99.2532C63.1577 100.498 64.4974 101.097 65.5366 100.591Z" fill="white"/>
<path d="M66.187 120.602C69.6478 118.501 72.1733 115.286 73.8196 112.646C73.1835 111.605 72.3791 110.638 71.3876 109.821C66.7482 106.047 59.9388 106.735 56.1412 111.326C53.6906 114.3 53.1106 118.185 54.2705 121.587C57.0204 122.256 62.2024 123 66.187 120.602Z" fill="#F9F7EA"/>
<path d="M73.8928 112.702C72.2466 115.341 69.7211 118.557 66.2603 120.658C62.2756 123.055 57.0937 122.312 54.3438 121.643C54.9798 123.502 56.1022 125.212 57.7298 126.531C62.3692 130.305 69.1786 129.617 72.9762 125.026C75.9506 121.42 76.1564 116.494 73.8928 112.702Z" fill="#FF1F1F"/>
<path opacity="0.16" d="M54.5684 113.891C54.5684 113.891 59.8064 107.348 66.5036 110.36C73.2008 113.371 75.3521 117.386 73.893 123.743C76.1004 120.527 76.4559 113.91 71.1804 109.653C65.905 105.396 57.7112 107.162 54.5684 113.891Z" fill="url(#paint19_linear_393_3572)"/>
<path d="M70.1322 114.975C70.8651 114.085 70.5843 112.652 69.5049 111.774C68.4256 110.896 66.9565 110.906 66.2236 111.796C65.4906 112.685 65.7715 114.118 66.8508 114.996C67.9301 115.874 69.3993 115.864 70.1322 114.975Z" fill="white"/>
<path d="M46.5987 116.829C50.5459 117.795 54.6241 117.293 57.6547 116.587C57.954 115.397 58.085 114.152 57.954 112.869C57.3741 106.958 52.0612 102.627 46.1123 103.203C42.2586 103.575 39.0784 105.917 37.4883 109.133C38.9474 111.531 42.0903 115.713 46.6174 116.829H46.5987Z" fill="#F9F7EA"/>
<path d="M57.6739 116.68C54.6433 117.386 50.5464 117.888 46.6179 116.921C42.0907 115.824 38.9666 111.642 37.4887 109.226C36.6095 110.973 36.1979 112.98 36.4037 115.062C36.9836 120.973 42.2965 125.305 48.2454 124.728C52.9035 124.264 56.5702 120.936 57.6739 116.68Z" fill="#49BF79"/>
<path opacity="0.16" d="M43.1758 103.909C43.1758 103.909 51.5379 102.98 54.1195 109.802C56.7011 116.624 55.3729 120.992 49.7982 124.468C53.6331 123.743 58.6093 119.319 57.9358 112.609C57.2623 105.898 50.191 101.363 43.1758 103.909Z" fill="url(#paint20_linear_393_3572)"/>
<path d="M53.4009 115.625C54.5525 115.513 55.3751 114.303 55.2383 112.924C55.1015 111.545 54.057 110.518 52.9054 110.631C51.7538 110.744 50.9312 111.953 51.0681 113.332C51.2049 114.712 52.2494 115.738 53.4009 115.625Z" fill="white"/>
<path d="M69.9464 98.2588C73.8936 99.2254 77.9718 98.7235 81.0024 98.0172C81.3017 96.8275 81.4326 95.5821 81.3017 94.2995C80.7218 88.3883 75.4089 84.0572 69.46 84.6335C65.6063 85.0052 62.4261 87.3474 60.8359 90.5632C62.2951 92.9611 65.4379 97.1435 69.9651 98.2588H69.9464Z" fill="#F9F7EA"/>
<path d="M81.0215 98.1097C77.991 98.8161 73.8941 99.318 69.9655 98.3514C65.4384 97.2547 62.3143 93.0723 60.8364 90.6558C59.9572 92.4031 59.5456 94.4106 59.7514 96.4925C60.3313 102.404 65.6442 106.735 71.5931 106.159C76.2512 105.694 79.9178 102.366 81.0215 98.1097Z" fill="#32B3E0"/>
<path opacity="0.16" d="M66.5234 85.358C66.5234 85.358 74.8856 84.4286 77.4672 91.2505C80.0488 98.0725 78.7206 102.441 73.1458 105.917C76.9808 105.192 81.9569 100.768 81.2835 94.0574C80.61 87.347 73.5387 82.8114 66.5234 85.358Z" fill="url(#paint21_linear_393_3572)"/>
<path d="M76.7291 97.0644C77.8806 96.9516 78.7032 95.742 78.5664 94.3628C78.4296 92.9835 77.3851 91.9569 76.2335 92.0697C75.082 92.1825 74.2594 93.392 74.3962 94.7713C74.533 96.1505 75.5775 97.1772 76.7291 97.0644Z" fill="white"/>
<path d="M33.5793 119.431C34.1779 115.453 33.28 111.456 32.3072 108.501C31.0912 108.315 29.8378 108.315 28.5657 108.557C22.6917 109.69 18.8567 115.341 19.9978 121.178C20.7274 124.952 23.3838 127.87 26.7511 129.171C29.0147 127.498 32.9245 124.004 33.598 119.431H33.5793Z" fill="#F9F7EA"/>
<path d="M32.4009 108.482C33.3924 111.419 34.2717 115.416 33.673 119.412C32.9996 123.985 29.0898 127.48 26.8262 129.153C28.6595 129.859 30.6986 130.082 32.7751 129.673C38.6492 128.539 42.4842 122.888 41.343 117.052C40.4451 112.479 36.7597 109.17 32.3822 108.482H32.4009Z" fill="#FF1F1F"/>
<path opacity="0.16" d="M20.9715 124.022C20.9715 124.022 19.2505 115.843 25.8541 112.646C32.4578 109.449 36.9475 110.36 40.9509 115.546C39.8659 111.81 34.9833 107.311 28.3048 108.613C21.6263 109.914 17.7726 117.312 20.9715 124.022Z" fill="url(#paint22_linear_393_3572)"/>
<path d="M29.6615 115.333C31.0306 115.068 31.9616 113.939 31.7408 112.81C31.52 111.681 30.2311 110.981 28.8619 111.245C27.4927 111.51 26.5618 112.639 26.7826 113.768C27.0034 114.896 28.2923 115.597 29.6615 115.333Z" fill="white"/>
</g>
<path opacity="0.4" d="M89.6632 18.8116V125.342C89.6632 125.342 97.3706 125.472 105.789 124.059C114.207 122.647 125.656 116.085 127.302 100.117C129.846 71.9931 130.651 31.3402 130.651 31.3402L89.6445 18.793L89.6632 18.8116Z" fill="#4EB6EA"/>
</g>
<defs>
<linearGradient id="paint0_linear_393_3572" x1="92.5949" y1="71.2793" x2="67.4975" y2="74.7727" gradientUnits="userSpaceOnUse">
<stop stop-color="#0018B9"/>
<stop offset="1" stop-color="#24E6FF" stop-opacity="0.5"/>
</linearGradient>
<linearGradient id="paint1_linear_393_3572" x1="59.4184" y1="112.559" x2="85.5513" y2="114.598" gradientUnits="userSpaceOnUse">
<stop stop-color="#045C00"/>
<stop offset="1" stop-color="#00FF2F" stop-opacity="0.5"/>
</linearGradient>
<linearGradient id="paint2_linear_393_3572" x1="51.411" y1="75.5908" x2="76.8407" y2="88.7863" gradientUnits="userSpaceOnUse">
<stop stop-color="#E38B00"/>
<stop offset="1" stop-color="#FFF2FF"/>
</linearGradient>
<linearGradient id="paint3_linear_393_3572" x1="82.3883" y1="78.2619" x2="107.831" y2="91.4438" gradientUnits="userSpaceOnUse">
<stop stop-color="#E38B00"/>
<stop offset="1" stop-color="#FFF2FF"/>
</linearGradient>
<linearGradient id="paint4_linear_393_3572" x1="7.11639" y1="64.8208" x2="28.24" y2="84.1173" gradientUnits="userSpaceOnUse">
<stop stop-color="#E38B00"/>
<stop offset="1" stop-color="#FFF2FF"/>
</linearGradient>
<linearGradient id="paint5_linear_393_3572" x1="76.0279" y1="108.662" x2="97.1515" y2="127.958" gradientUnits="userSpaceOnUse">
<stop stop-color="#E38B00"/>
<stop offset="1" stop-color="#FFF2FF"/>
</linearGradient>
<linearGradient id="paint6_linear_393_3572" x1="20.5149" y1="77.6072" x2="47.8208" y2="86.3488" gradientUnits="userSpaceOnUse">
<stop stop-color="#720000"/>
<stop offset="1" stop-color="#E7A76A" stop-opacity="0.5"/>
</linearGradient>
<linearGradient id="paint7_linear_393_3572" x1="86.9625" y1="104.032" x2="115.646" y2="102.782" gradientUnits="userSpaceOnUse">
<stop stop-color="#720000"/>
<stop offset="1" stop-color="#E7A76A" stop-opacity="0.5"/>
</linearGradient>
<linearGradient id="paint8_linear_393_3572" x1="124.404" y1="104.413" x2="110.424" y2="79.5205" gradientUnits="userSpaceOnUse">
<stop stop-color="#E38B00"/>
<stop offset="1" stop-color="#FFF2FF"/>
</linearGradient>
<linearGradient id="paint9_linear_393_3572" x1="44.9811" y1="77.5305" x2="56.8785" y2="100.74" gradientUnits="userSpaceOnUse">
<stop stop-color="#045C00"/>
<stop offset="1" stop-color="#00FF2F" stop-opacity="0.5"/>
</linearGradient>
<linearGradient id="paint10_linear_393_3572" x1="113.273" y1="97.315" x2="94.0206" y2="114.993" gradientUnits="userSpaceOnUse">
<stop stop-color="#045C00"/>
<stop offset="1" stop-color="#00FF2F" stop-opacity="0.5"/>
</linearGradient>
<linearGradient id="paint11_linear_393_3572" x1="9.97919" y1="80.9766" x2="21.4812" y2="103.409" gradientUnits="userSpaceOnUse">
<stop stop-color="#0018B9"/>
<stop offset="1" stop-color="#24E6FF" stop-opacity="0.5"/>
</linearGradient>
<linearGradient id="paint12_linear_393_3572" x1="100.059" y1="68.9256" x2="105.474" y2="93.5201" gradientUnits="userSpaceOnUse">
<stop stop-color="#0018B9"/>
<stop offset="1" stop-color="#24E6FF" stop-opacity="0.5"/>
</linearGradient>
<linearGradient id="paint13_linear_393_3572" x1="94.1949" y1="85.5287" x2="72.2256" y2="98.0357" gradientUnits="userSpaceOnUse">
<stop stop-color="#0018B9"/>
<stop offset="1" stop-color="#24E6FF" stop-opacity="0.5"/>
</linearGradient>
<linearGradient id="paint14_linear_393_3572" x1="46.1626" y1="114.133" x2="70.221" y2="98.595" gradientUnits="userSpaceOnUse">
<stop stop-color="#720000"/>
<stop offset="1" stop-color="#E7A76A" stop-opacity="0.5"/>
</linearGradient>
<linearGradient id="paint15_linear_393_3572" x1="6.68518" y1="114.086" x2="31.9801" y2="112.985" gradientUnits="userSpaceOnUse">
<stop stop-color="#0018B9"/>
<stop offset="1" stop-color="#24E6FF" stop-opacity="0.5"/>
</linearGradient>
<linearGradient id="paint16_linear_393_3572" x1="55.5731" y1="86.6454" x2="29.7437" y2="82.1727" gradientUnits="userSpaceOnUse">
<stop stop-color="#045C00"/>
<stop offset="1" stop-color="#00FF2F" stop-opacity="0.5"/>
</linearGradient>
<linearGradient id="paint17_linear_393_3572" x1="49.0466" y1="103.836" x2="24.9806" y2="88.3192" gradientUnits="userSpaceOnUse">
<stop stop-color="#E38B00"/>
<stop offset="1" stop-color="#FFF2FF"/>
</linearGradient>
<linearGradient id="paint18_linear_393_3572" x1="71.8774" y1="108.15" x2="52.6771" y2="86.9696" gradientUnits="userSpaceOnUse">
<stop stop-color="#E38B00"/>
<stop offset="1" stop-color="#FFF2FF"/>
</linearGradient>
<linearGradient id="paint19_linear_393_3572" x1="79.0352" y1="119.225" x2="52.6706" y2="107.973" gradientUnits="userSpaceOnUse">
<stop stop-color="#720000"/>
<stop offset="1" stop-color="#E7A76A" stop-opacity="0.5"/>
</linearGradient>
<linearGradient id="paint20_linear_393_3572" x1="56.6625" y1="124.893" x2="46.9844" y2="100.686" gradientUnits="userSpaceOnUse">
<stop stop-color="#045C00"/>
<stop offset="1" stop-color="#00FF2F" stop-opacity="0.5"/>
</linearGradient>
<linearGradient id="paint21_linear_393_3572" x1="80.0118" y1="106.337" x2="70.6363" y2="82.9421" gradientUnits="userSpaceOnUse">
<stop stop-color="#0018B9"/>
<stop offset="1" stop-color="#24E6FF" stop-opacity="0.5"/>
</linearGradient>
<linearGradient id="paint22_linear_393_3572" x1="40.7235" y1="108.725" x2="15.2995" y2="121.943" gradientUnits="userSpaceOnUse">
<stop stop-color="#720000"/>
<stop offset="1" stop-color="#E7A76A" stop-opacity="0.5"/>
</linearGradient>
<clipPath id="clip0_393_3572">
<rect width="145" height="192" fill="white"/>
</clipPath>
</defs>
</svg>
