<svg width="40" height="40" viewBox="0 0 40 40" fill="none" xmlns="http://www.w3.org/2000/svg">
<mask id="mask0_197_2599" style="mask-type:alpha" maskUnits="userSpaceOnUse" x="0" y="0" width="40" height="40">
<rect width="40" height="40" fill="#D9D9D9"/>
</mask>
<g mask="url(#mask0_197_2599)">
<path d="M15.333 26.6667L19.9997 23.1667L24.583 26.6667L22.833 21.0001L27.4997 17.3334H21.833L19.9997 11.6667L18.1663 17.3334H12.4997L17.083 21.0001L15.333 26.6667ZM6.66634 33.3334C5.74967 33.3334 4.96495 33.007 4.31217 32.3542C3.6594 31.7015 3.33301 30.9167 3.33301 30.0001V24.3751C3.33301 24.0695 3.43023 23.8056 3.62467 23.5834C3.81912 23.3612 4.06912 23.2223 4.37467 23.1667C5.04134 22.9445 5.58995 22.5417 6.02051 21.9584C6.45106 21.3751 6.66634 20.7223 6.66634 20.0001C6.66634 19.2779 6.45106 18.6251 6.02051 18.0417C5.58995 17.4584 5.04134 17.0556 4.37467 16.8334C4.06912 16.7779 3.81912 16.639 3.62467 16.4167C3.43023 16.1945 3.33301 15.9306 3.33301 15.6251V10.0001C3.33301 9.08341 3.6594 8.29869 4.31217 7.64591C4.96495 6.99314 5.74967 6.66675 6.66634 6.66675H33.333C34.2497 6.66675 35.0344 6.99314 35.6872 7.64591C36.34 8.29869 36.6663 9.08341 36.6663 10.0001V15.6251C36.6663 15.9306 36.5691 16.1945 36.3747 16.4167C36.1802 16.639 35.9302 16.7779 35.6247 16.8334C34.958 17.0556 34.4094 17.4584 33.9788 18.0417C33.5483 18.6251 33.333 19.2779 33.333 20.0001C33.333 20.7223 33.5483 21.3751 33.9788 21.9584C34.4094 22.5417 34.958 22.9445 35.6247 23.1667C35.9302 23.2223 36.1802 23.3612 36.3747 23.5834C36.5691 23.8056 36.6663 24.0695 36.6663 24.3751V30.0001C36.6663 30.9167 36.34 31.7015 35.6872 32.3542C35.0344 33.007 34.2497 33.3334 33.333 33.3334H6.66634ZM6.66634 30.0001H33.333V25.7501C32.3052 25.139 31.4927 24.3265 30.8955 23.3126C30.2983 22.2987 29.9997 21.1945 29.9997 20.0001C29.9997 18.8056 30.2983 17.7015 30.8955 16.6876C31.4927 15.6737 32.3052 14.8612 33.333 14.2501V10.0001H6.66634V14.2501C7.69412 14.8612 8.50662 15.6737 9.10384 16.6876C9.70106 17.7015 9.99967 18.8056 9.99967 20.0001C9.99967 21.1945 9.70106 22.2987 9.10384 23.3126C8.50662 24.3265 7.69412 25.139 6.66634 25.7501V30.0001Z" fill="#AEAEAE"/>
</g>
</svg>
