<svg width="170" height="170" viewBox="0 0 170 170" fill="none" xmlns="http://www.w3.org/2000/svg">
<mask id="path-1-outside-1_174_3319" maskUnits="userSpaceOnUse" x="0" y="0" width="170" height="170" fill="black">
<rect fill="white" width="170" height="170"/>
<path fill-rule="evenodd" clip-rule="evenodd" d="M168 52V11V2H159L118 2V11L159 11V52H168ZM11 2H2V11V52H11V11L52 11V2H11ZM52 159V168H11H2V159V118H11V159H52ZM118 168H159H168V159V118H159V159H118V168Z"/>
</mask>
<path fill-rule="evenodd" clip-rule="evenodd" d="M168 52V11V2H159L118 2V11L159 11V52H168ZM11 2H2V11V52H11V11L52 11V2H11ZM52 159V168H11H2V159V118H11V159H52ZM118 168H159H168V159V118H159V159H118V168Z" fill="black"/>
<path d="M168 52V54H170V52H168ZM168 2H170V2.14577e-06H168V2ZM159 2V4V2ZM118 2V0H116V2H118ZM118 11H116V13H118V11ZM159 11H161V9H159V11ZM159 52H157V54H159V52ZM2 2V2.14577e-06H0V2H2ZM2 52H0V54H2V52ZM11 52V54H13V52H11ZM11 11V9L9 9V11H11ZM52 11V13H54V11H52ZM52 2H54V2.14577e-06H52V2ZM52 168V170H54V168H52ZM52 159H54V157H52V159ZM2 168H0V170H2V168ZM2 118V116H0V118H2ZM11 118H13V116H11V118ZM11 159H9V161H11V159ZM118 168H116V170H118V168ZM168 168V170H170V168H168ZM168 118H170V116H168V118ZM159 118V116H157V118H159ZM159 159V161H161V159H159ZM118 159V157H116V159H118ZM166 11V52H170V11H166ZM166 2V11H170V2H166ZM159 4H168V2.14577e-06H159V4ZM118 4L159 4V2.14577e-06L118 0V4ZM120 11V2H116V11H120ZM159 9L118 9V13L159 13V9ZM161 52V11H157V52H161ZM168 50H159V54H168V50ZM2 4H11V2.14577e-06H2V4ZM4 11V2H0V11H4ZM4 52V11H0V52H4ZM11 50H2V54H11V50ZM9 11V52H13V11H9ZM52 9L11 9V13L52 13V9ZM50 2V11H54V2H50ZM11 4H52V2.14577e-06H11V4ZM54 168V159H50V168H54ZM11 170H52V166H11V170ZM2 170H11V166H2V170ZM0 159V168H4V159H0ZM0 118V159H4V118H0ZM11 116H2V120H11V116ZM13 159V118H9V159H13ZM52 157H11V161H52V157ZM159 166H118V170H159V166ZM168 166H159V170H168V166ZM166 159V168H170V159H166ZM166 118V159H170V118H166ZM159 120H168V116H159V120ZM161 159V118H157V159H161ZM118 161H159V157H118V161ZM120 168V159H116V168H120Z" fill="white" mask="url(#path-1-outside-1_174_3319)"/>
</svg>
