<svg width="220" height="41" viewBox="0 0 220 41" fill="none" xmlns="http://www.w3.org/2000/svg">
    <g clip-path="url(#clip0_393_3690)">
        <path
            d="M195.415 13.5449C195.415 9.02995 192.691 6.34089 188.14 6.34089H181.894V5.04615C181.894 2.15789 179.568 -0.0332031 176.512 -0.0332031C173.455 -0.0332031 171.063 2.15789 171.063 5.04615V6.34089H165.349C160.797 6.34089 158.073 9.02995 158.073 13.5449V19.2883C157.708 19.1223 157.375 18.9231 156.977 18.8567C156.346 18.6907 155.781 18.6907 155.548 18.6907C152.857 18.6907 150.698 20.5498 150.233 23.3717C150.066 24.4008 149.834 25.3636 149.535 26.1935C149.535 26.0939 149.535 25.9943 149.535 25.8947C149.435 22.4421 149.136 20.1514 147.94 18.0267C146.545 15.57 144.053 14.1425 141.096 14.0761C142.159 11.4202 143.256 8.69797 143.256 8.69797C143.621 7.80161 143.721 6.97165 143.721 6.40728C143.721 4.017 142.193 1.9587 140.033 1.39433C139.402 1.19514 138.771 1.09554 138.14 1.09554C135.814 1.09554 133.887 2.48987 133.09 4.64777C132.027 7.33684 130.897 10.2251 129.767 13.213C129.269 10.7895 127.243 9.16275 124.452 9.16275C123.821 9.16275 123.156 9.16275 122.492 9.19595V6.83886C122.492 3.9174 120.066 1.62672 117.01 1.62672C113.953 1.62672 111.595 3.88421 111.595 6.90526C111.595 6.90526 111.595 8.23319 111.595 9.56113C111.595 9.56113 108.239 9.72712 107.409 9.76032V7.56923C107.409 4.61457 105.149 2.39028 101.927 2.25749C98.8372 2.25749 96.4784 4.54817 96.4784 7.56923C96.4784 8.46558 96.4784 9.46153 96.4784 10.5239C95.3488 10.6235 94.3521 10.6899 94.3521 10.6899C92.2924 10.7895 90.6312 11.9846 89.8671 13.8105C89.5349 13.5117 89.2691 13.1798 88.9036 12.9142C89.9335 11.9514 90.5648 10.5903 90.6312 8.93036C90.6312 5.87611 88.3721 3.48583 85.3488 3.38623C80.3987 3.15384 74.7508 2.45668 70.9967 1.59352C70.6312 1.49392 70.1329 1.49392 69.8007 1.49392C67.1429 1.49392 64.9834 3.25344 64.3854 5.90931C64.3189 6.17489 64.2525 6.57328 64.2525 7.13765C64.2525 9.22915 65.3821 11.0219 67.2093 11.9182C66.2791 12.1506 65.3821 12.383 64.5515 12.6486C62.9236 13.0802 61.6944 14.2089 61.0299 15.6696C59.402 13.6445 57.1761 12.1506 54.5515 11.4202C54.0532 8.96356 51.9601 7.27044 49.3688 7.27044C49.2691 7.27044 48.7708 7.27044 48.7043 7.27044C46.0797 7.56923 44.2193 9.59433 44.0532 12.217C43.8206 12.3166 43.588 12.4162 43.3887 12.5158C42.7243 10.8891 41.2292 9.66072 39.3355 9.36194C39.2027 9.36194 38.5714 9.29554 38.4385 9.29554C36.6777 9.29554 35.1827 10.1255 34.2193 11.4202C34.2193 11.3206 34.2857 11.221 34.2857 11.1215C34.2857 10.9887 34.2857 10.4243 34.2525 10.2915C33.8538 7.66882 31.6279 5.77651 29.0033 5.77651C28.9037 5.77651 28.2392 5.84291 28.1728 5.84291C26.0465 6.1085 23.6545 6.37408 21.2625 6.54008C21.2625 6.44048 21.2625 6.34089 21.2625 6.24129C21.2625 3.68502 19.5681 1.59352 17.1761 1.19514C16.5448 1.02915 16.0465 1.02915 15.7807 1.02915C13.0565 1.02915 10.8638 2.85506 10.4983 5.21214C10.3322 5.77651 10.1993 6.37408 10.0332 6.90526C8.33887 6.90526 6.74419 6.83886 5.1495 6.73927C2.3588 6.63967 0.13289 8.86396 0 12.051C0 14.9061 2.0598 17.1968 4.91694 17.4623C5.28239 17.4623 5.64784 17.4955 6.04651 17.5287C5.24917 19.1223 4.38538 20.6826 3.45515 22.2097C2.82392 23.2057 2.49169 24.3344 2.49169 25.43C2.49169 27.3555 3.52159 29.115 5.24917 30.1441C5.24917 30.1441 5.31561 30.1773 5.34884 30.2105C5.31561 30.3433 5.24917 30.4429 5.21595 30.5757C4.95017 31.2397 4.78405 31.9368 4.78405 32.634C4.78405 35.0575 6.37874 37.149 8.6711 37.813C11.2292 38.6097 14.8505 39.0745 18.9037 39.0745C27.1429 39.0745 31.2957 36.2858 33.4551 33.2648C34.4518 34.7587 36.1794 35.6883 38.4053 35.6883C38.6711 35.6883 38.9037 35.6219 39.1362 35.5555C39.1694 36.3854 39.402 37.149 39.701 37.5806C40.598 39.4065 42.3588 40.502 44.3522 40.502C45.3156 40.502 46.2791 40.2364 47.01 39.8381C48.7375 38.9749 50.299 37.7798 51.5615 36.3522C55.0166 36.1198 58.0066 34.8251 60.2326 32.5676C62.5914 30.1773 63.8538 26.8907 63.8538 23.2389C63.8538 23.1061 63.8538 23.0065 63.8538 22.8737C64.5183 23.1725 65.2492 23.4049 66.0465 23.4049C66.6445 23.4049 67.1429 23.3053 67.7741 23.1725C70.9967 22.1765 76.0133 21.0146 79.5017 21.0146C81.8605 21.0146 82.4252 21.5457 82.4252 21.5457C82.4252 21.5457 82.4252 21.8445 82.4252 21.9773C82.4252 23.0729 82.1262 24.7328 79.402 26.2599C77.5747 27.2891 74.2857 28.285 71.1628 28.6834C68.4718 29.1482 66.5781 31.3725 66.5781 34.0615C66.5781 34.4599 66.5781 34.9247 66.7442 35.4227C67.3754 37.9789 69.5017 39.7053 72.093 39.7053C72.1927 39.7053 72.7907 39.6389 72.9236 39.6389C76.9767 39.1409 81.4618 37.7466 84.5515 36.0534C90.4319 32.8 93.5216 27.8866 93.5216 21.8445C93.5216 21.5789 93.4551 21.3134 93.4551 21.0478C93.9535 21.1806 94.4518 21.2802 95.0166 21.2802L96.5448 21.1806V21.9441C96.5448 28.2518 96.8106 30.9077 98.3389 33.298C100.963 37.8461 106.578 38.4769 111.694 38.4769C115.448 38.4769 119.402 38.1449 122.193 37.6138C122.757 37.5142 123.223 37.315 123.721 37.0826C124.385 37.9789 125.349 38.6429 126.445 38.9417C127.043 39.1409 127.708 39.2405 128.306 39.2405C130.565 39.2405 132.425 37.9125 133.422 35.4227C134.485 32.3684 135.98 29.1814 137.11 27.4551C137.641 26.6251 138.206 26.0607 138.704 25.6291C138.704 26.0939 138.738 26.6251 138.771 27.2891C138.904 31.5717 139.601 34.0947 141.229 35.9538C142.392 37.3482 144.651 39.0081 148.638 39.0081C152.226 39.0081 155.316 37.5142 157.309 34.8915C158.738 33.0988 159.867 30.8081 160.532 28.2518C161.761 29.281 163.422 29.8785 165.448 29.8785H171.163V35.9538C171.163 38.8421 173.522 41.0332 176.611 41.0332C179.701 41.0332 181.993 38.8421 181.993 35.9538V29.8785H188.239C192.724 29.8785 195.515 27.1231 195.515 22.7077V13.6445L195.415 13.5449ZM18.804 28.1854C17.1761 28.1854 15.6146 28.0526 14.3854 27.8534C16.5448 26.6915 19.1362 25.9611 21.3621 25.9611C23.7874 25.9611 24.5183 26.4259 24.5515 26.4591C24.5515 27.1563 22.3588 28.1522 18.7708 28.1522L18.804 28.1854ZM29.6678 16.4332C31.1296 16.234 32.3256 15.5036 33.1561 14.4413C32.8571 16.1676 32.6578 17.6947 32.5249 19.0891C31.495 18.0931 30.2326 17.1968 28.6046 16.566C28.9701 16.5328 29.3023 16.4664 29.6346 16.4332H29.6678ZM121.362 26.6251C121.163 26.6251 120.897 26.6251 120.631 26.6251C121.196 25.6291 121.595 24.4672 121.86 23.1725C122.027 22.2097 122.193 21.081 122.292 19.8194C123.056 19.8194 123.821 19.8194 124.585 19.8194C125.714 19.8194 126.744 19.5206 127.608 18.9563C126.545 21.8113 125.482 24.6996 124.419 27.621C123.555 27.0235 122.525 26.6251 121.395 26.6251H121.362ZM171.063 19.2219H168.937V16.9644C169.635 16.9644 170.365 16.9644 171.063 16.9644V19.2219ZM184.551 19.2219C183.688 19.2219 182.757 19.2219 181.894 19.2219V16.9644H184.551V19.2219Z"
            fill="white" />
        <path
            d="M199.967 25.6289C196.345 25.6289 193.521 28.4508 193.521 32.0362C193.521 35.6216 196.345 38.5099 199.967 38.5099C203.588 38.5099 206.412 35.6548 206.412 32.0362C206.412 28.4176 203.588 25.6289 199.967 25.6289Z"
            fill="white" />
        <path
            d="M213.555 25.6289C209.933 25.6289 207.109 28.4508 207.109 32.0362C207.109 35.6216 209.933 38.5099 213.555 38.5099C217.176 38.5099 220 35.6548 220 32.0362C220 28.4176 217.176 25.6289 213.555 25.6289Z"
            fill="white" />
        <path
            d="M18.8708 36.4186C15.1499 36.4186 11.728 36.0203 9.46881 35.2899C8.2728 34.9247 7.44224 33.8624 7.44224 32.634C7.44224 32.2688 7.50868 31.9037 7.64157 31.5717C8.00702 30.4429 8.97048 29.6794 10.2329 29.6794C10.5652 29.6794 10.8642 29.7458 11.2296 29.8454C12.6914 30.3101 15.7147 30.8081 18.8376 30.8081C22.924 30.8081 27.2761 29.6462 27.2761 26.4259C27.2761 24.3344 25.316 23.2721 21.4289 23.2721C17.8077 23.2721 13.5884 24.766 10.6648 27.1231C9.66815 27.8535 8.87081 28.1854 8.04024 28.1854C7.50868 28.1854 7.01034 28.0526 6.57845 27.7871C5.68144 27.2559 5.14988 26.3595 5.14988 25.3968C5.14988 24.7992 5.34921 24.1684 5.71466 23.5709C7.40901 20.7822 8.87081 17.9935 10.1665 14.9061C8.33925 14.9061 6.54523 14.8729 5.14988 14.7733C3.68808 14.6405 2.69141 13.545 2.69141 12.0178C2.75785 10.3579 3.8542 9.26236 5.28277 9.26236C7.37579 9.36196 9.63493 9.42835 12.1598 9.42835C12.5253 8.23321 12.8575 7.00487 13.1897 5.71014C13.3891 4.4154 14.4522 3.51904 15.914 3.51904C16.0801 3.51904 16.3791 3.51904 16.7113 3.61864C17.8409 3.75143 18.7379 4.74738 18.7379 6.07532C18.7379 6.30771 18.7047 6.5401 18.6715 6.77248C18.4389 7.63564 18.2064 8.4656 17.9406 9.26236C21.4954 9.09637 25.3492 8.76439 28.6382 8.33281C28.7047 8.33281 29.0701 8.29961 29.1366 8.29961C30.4987 8.29961 31.5618 9.22916 31.7612 10.5571C31.7612 10.6235 31.7612 10.9223 31.7612 10.9887C31.7612 12.4494 30.8309 13.545 29.3691 13.7441C25.4489 14.3085 20.4987 14.7069 16.0137 14.8397C15.3492 16.4996 14.6183 18.1263 13.8542 19.6203C16.3791 18.5579 19.1366 17.9935 21.7944 17.9935C30.0668 17.9935 33.0236 22.3425 33.0236 26.3927C33.0236 28.7166 31.9937 36.319 18.9373 36.319L18.8708 36.4186Z"
            fill="#32B3E0" />
        <path
            d="M44.3512 37.8793C43.3546 37.8793 42.524 37.3481 42.0589 36.4186C41.8928 36.1198 41.7599 35.7214 41.7599 35.2566C41.7599 34.1943 42.3911 33.2647 43.3546 32.8995C43.8197 32.7003 44.2516 32.4348 44.6502 32.136C43.122 31.1732 41.6602 29.5797 40.9625 27.3886C40.7632 28.285 40.6635 29.2477 40.6635 30.2105C40.5971 31.8372 39.6336 32.8995 38.1386 33.0655C36.4443 33.0655 35.3147 32.0364 35.215 30.5092C35.0821 29.4469 34.9825 27.7206 34.916 25.1643C34.916 22.4088 35.0489 18.923 35.9459 14.0097C36.1452 12.7481 37.2084 11.885 38.5373 11.885C38.6037 11.885 38.9359 11.885 39.0024 11.885C40.3313 12.0841 41.1951 13.0137 41.1951 14.2752C41.1951 14.4744 41.1951 14.7732 41.0622 15.1052C40.8629 16.0016 40.6967 17.0307 40.5306 18.0931C40.73 17.8607 40.9293 17.6615 41.1286 17.4291C42.7898 15.7028 44.8496 14.4744 47.0755 13.9101C47.009 13.5449 46.9426 13.2129 46.9094 12.8809C46.9094 12.8145 46.8429 12.5489 46.8429 12.4493C46.8429 10.9554 47.7732 9.92625 49.1353 9.79346C49.1685 9.79346 49.4343 9.79346 49.5007 9.79346C50.8629 9.79346 51.8928 10.6566 52.0921 11.9514C52.1253 12.3165 52.2914 13.3125 52.3247 13.5449C57.3745 14.1424 61.1951 18.2258 61.2283 23.3052C61.2283 26.2267 60.2316 28.8493 58.3712 30.7416C56.4443 32.7003 53.7532 33.7295 50.5971 33.7627C50.5971 33.7627 50.4642 33.7959 50.2981 33.7959C49.235 35.2898 47.6403 36.6509 45.8795 37.5141C45.4476 37.7797 44.916 37.9125 44.3845 37.9125L44.3512 37.8793ZM52.7898 18.7902C52.8894 19.8858 52.9227 20.9481 52.9559 21.9441C52.9559 24.6663 52.7565 26.7246 52.3579 28.4177C54.5506 27.8534 55.9459 25.9611 55.9127 23.3716C55.9127 21.4793 54.8163 19.5206 52.7898 18.8234V18.7902ZM43.3878 23.9692C44.5173 23.9692 45.4144 24.6663 45.813 25.8283C46.0788 26.6582 46.5771 27.3554 47.2084 27.8202C47.5406 26.4258 47.7067 24.5999 47.7067 22.0437C47.7067 21.1473 47.6403 20.1182 47.5738 19.089C46.1785 19.6202 44.7831 20.5829 43.6868 21.8445C43.0223 22.6412 42.4908 23.4712 42.0589 24.3343C42.1918 24.268 42.3247 24.2016 42.4908 24.1352C42.9227 24.0356 43.1884 24.0024 43.421 24.0024L43.3878 23.9692Z"
            fill="#32B3E0" />
        <path
            d="M72.0598 37.0495C70.6645 37.0495 69.6014 36.1531 69.2691 34.7256C69.2027 34.5596 69.2027 34.294 69.2027 34.0948C69.2027 32.7005 70.1662 31.5717 71.5947 31.3394C74.9834 30.8746 78.5383 29.8122 80.6977 28.6171C83.6213 26.9572 85.0831 24.7329 85.0831 22.0106C85.0831 21.0147 85.0831 18.392 79.4685 18.392C75.7143 18.392 70.5316 19.5871 66.9768 20.6827C66.6113 20.7491 66.3456 20.8155 66.0466 20.8155C64.8505 20.8155 63.8206 20.0519 63.3887 18.8568C63.2891 18.392 63.2559 18.1264 63.2559 17.894C63.2559 16.5993 64.0864 15.4705 65.3489 15.1385C69.7343 13.7774 75.4153 12.8479 79.402 12.8479C87.8406 12.8479 90.8638 17.4956 90.8638 21.8778C90.8638 26.9572 88.3057 30.9742 83.2559 33.7628C80.4319 35.3232 76.3456 36.5847 72.5914 37.0495C72.525 37.0495 72.1595 37.0827 72.0931 37.0827L72.0598 37.0495ZM85.0499 11.5863C80.299 11.4867 73.4552 10.6568 69.1363 9.66081C67.8073 9.32883 66.9768 8.33288 66.9768 7.00494C66.9768 6.73936 67.0432 6.50697 67.0765 6.30778C67.3755 4.91345 68.4718 4.01709 69.8672 4.01709C69.9668 4.01709 70.3655 4.01709 70.4652 4.05029C74.3522 4.94664 80.1994 5.67701 85.2824 5.9094C86.8771 5.97579 88.0067 7.17094 88.0067 8.79766C87.9402 10.4908 86.7774 11.5531 85.1495 11.5531H85.0499V11.5863Z"
            fill="#32B3E0" />
        <path
            d="M111.629 35.788C105.416 35.788 102.094 34.626 100.566 31.9369C99.4028 30.1442 99.1038 28.0859 99.1038 21.911V18.2592C98.4061 18.3256 94.9509 18.5912 94.9177 18.5912C93.1901 18.5912 92.127 17.5288 92.0273 16.0681C92.0273 14.4414 93.0572 13.3127 94.519 13.2463C94.519 13.2463 97.7084 13.0139 99.137 12.8811C99.137 11.022 99.137 9.09646 99.137 7.46974C99.137 5.84302 100.3 4.81387 101.928 4.81387C103.622 4.88027 104.752 5.94261 104.752 7.46974C104.752 9.12966 104.752 10.7896 104.752 12.4827C106.479 12.3831 108.273 12.2835 110.067 12.1839C110.067 12.1839 113.29 12.0179 114.286 11.9847C114.286 11.6527 114.253 6.77257 114.253 6.77257C114.253 5.24545 115.416 4.1499 117.011 4.1499C118.605 4.1499 119.835 5.24545 119.835 6.70618C119.835 6.70618 119.835 11.1216 119.835 11.7855C121.363 11.7523 122.991 11.7191 124.519 11.6859C126.213 11.6859 127.277 12.7151 127.277 14.3418C127.277 15.9685 126.213 17.0973 124.585 17.0973C123.257 17.0973 121.861 17.0973 120.499 17.1637H119.801C119.735 19.2552 119.569 21.2139 119.303 22.6414C118.506 26.9904 115.781 27.8867 113.655 27.8867C111.529 27.8867 109.071 27.0236 107.277 25.5629C106.645 24.9985 106.28 24.2349 106.28 23.4382C106.28 22.8738 106.479 22.2762 106.811 21.8114C107.376 21.0811 108.207 20.6827 109.037 20.6827C109.702 20.6827 110.333 20.9151 110.831 21.3799C111.529 21.9442 112.592 22.3758 113.323 22.3758C113.589 22.3426 113.755 22.2098 113.921 21.4463C114.087 20.5499 114.187 19.1888 114.253 17.3961H113.987C112.725 17.4625 111.529 17.4957 110.366 17.562C110.366 17.562 105.848 17.8276 104.752 17.894V20.5831C104.752 26.0608 104.884 28.0527 105.283 28.6835C105.781 29.6131 106.978 30.1442 111.562 30.1442C114.752 30.1442 118.14 29.8454 120.665 29.3143C120.931 29.2479 121.23 29.2479 121.429 29.2479C122.858 29.2479 123.888 30.1442 124.087 31.5718C124.087 31.6382 124.154 32.0033 124.154 32.0697C124.154 33.5305 123.19 34.6592 121.728 34.9248C119.037 35.456 115.25 35.7548 111.662 35.7548L111.629 35.788Z"
            fill="#32B3E0" />
        <path
            d="M128.24 36.5183C127.908 36.5183 127.576 36.4519 127.21 36.3523C126.047 36.0535 125.217 35.0243 125.217 33.7296C125.217 33.298 125.316 32.8664 125.449 32.4681C128.805 23.0729 132.426 13.4786 135.549 5.57737C135.981 4.41543 136.944 3.71826 138.14 3.71826C138.506 3.71826 138.871 3.78466 139.204 3.88425C140.333 4.18304 141.064 5.17899 141.064 6.37413C141.064 6.63972 141.064 7.13769 140.831 7.63567C140.831 7.63567 137.409 16.1013 136.712 17.8276C138.041 17.064 139.469 16.6988 140.931 16.6988C143.024 16.6988 144.685 17.6284 145.649 19.2883C146.479 20.749 146.778 22.4421 146.878 25.928C146.944 27.4883 147.044 29.613 147.443 30.1774C147.576 30.3434 148.041 30.5426 148.705 30.5426C149.569 30.5426 150.366 30.111 150.898 29.3806C151.795 28.0859 152.493 26.094 152.858 23.7369C153.124 22.2762 154.187 21.3134 155.549 21.3134C155.715 21.3134 156.014 21.3134 156.346 21.413C157.542 21.6122 158.473 22.7077 158.473 24.1353C158.473 24.3677 158.473 24.6332 158.373 24.8988C157.941 28.1191 156.811 31.0405 155.117 33.132C153.589 35.1571 151.297 36.2527 148.506 36.2527C145.549 36.2527 143.954 35.0907 143.124 34.128C141.928 32.7336 141.396 30.6753 141.297 27.0899C141.23 24.3345 141.13 23.3385 140.798 22.5085C140.665 22.2098 140.599 22.1102 140.101 22.1102C138.306 22.1102 136.28 23.5709 134.752 25.8948C133.489 27.8203 131.961 31.1733 130.798 34.4268C130.101 36.1199 129.004 36.4519 128.207 36.4519L128.24 36.5183Z"
            fill="#32B3E0" />
        <path
            d="M176.544 38.344C174.883 38.344 173.754 37.3481 173.754 35.9205V27.1894H165.382C162.358 27.1894 160.764 25.629 160.764 22.6744V13.6112C160.764 10.5902 162.325 9.06305 165.382 9.06305H173.754V5.11245C173.754 3.68492 174.916 2.68896 176.544 2.68896C178.172 2.68896 179.269 3.68492 179.269 5.11245V9.06305H188.172C191.229 9.06305 192.79 10.5902 192.79 13.6112V22.6744C192.79 25.629 191.196 27.1894 188.172 27.1894H179.269V35.9205C179.269 37.3481 178.139 38.344 176.544 38.344ZM187.242 21.8776V14.3416C187.176 14.3416 179.235 14.3416 179.235 14.3416V21.9108C179.235 21.9108 187.142 21.9108 187.209 21.9108L187.242 21.8776ZM166.312 21.8112C166.113 21.8112 166.212 21.8776 166.544 21.8776H173.754V14.3084C173.754 14.3084 166.378 14.3084 166.312 14.3084V21.8112Z"
            fill="#32B3E0" />
        <path
            d="M199.967 35.8544C197.808 35.8544 196.18 34.2277 196.18 32.0366C196.18 29.8455 197.808 28.2852 199.967 28.2852C202.127 28.2852 203.754 29.9119 203.754 32.0366C203.754 34.1613 202.127 35.8544 199.967 35.8544Z"
            fill="#32B3E0" />
        <path
            d="M213.555 35.8544C211.395 35.8544 209.768 34.2277 209.768 32.0366C209.768 29.8455 211.395 28.2852 213.555 28.2852C215.714 28.2852 217.342 29.9119 217.342 32.0366C217.342 34.1613 215.714 35.8544 213.555 35.8544Z"
            fill="#32B3E0" />
    </g>
    <defs>
        <clipPath id="clip0_393_3690">
            <rect width="220" height="41" fill="white" />
        </clipPath>
    </defs>
</svg>