<svg width="125" height="114" viewBox="0 0 125 114" fill="none" xmlns="http://www.w3.org/2000/svg">
<path d="M89.3201 31.0714C88.6734 29.9025 87.8407 29.0158 86.822 28.4113C86.4178 28.1851 85.8414 27.9128 85.153 27.7285C85.0927 26.96 84.8824 26.1735 84.488 25.441C83.0745 22.835 79.9666 21.8779 77.4176 23.2463L65.449 29.7504C65.3089 29.8605 64.8447 30.1346 64.7047 30.2446C64.3966 30.4867 64.1546 30.8129 63.9405 31.1171C63.8965 31.061 63.8304 30.977 63.7864 30.9209C63.1239 30.3084 62.3653 29.862 61.2827 29.5796C60.072 29.3072 58.0488 29.0387 56.462 29.1525C56.0778 29.1825 54.8692 29.3163 53.6928 30.2407C53.5528 30.3508 53.1826 30.6869 53.0926 30.803C51.7783 32.2437 51.4827 34.289 52.1635 36.0202C52.0515 36.1082 51.6254 36.4884 51.5354 36.6045C50.6311 37.5869 50.1472 38.8737 50.2136 40.2266C50.2277 40.5328 50.3699 40.829 50.434 41.1412C49.5976 41.3452 48.7713 41.6772 47.987 42.2935C45.9344 44.1784 45.615 47.0582 47.1765 49.2759L45.752 50.5764C44.2996 51.899 43.7778 53.7141 44.1305 55.4313C43.9483 55.2571 43.7662 55.083 43.5781 54.9589C41.6527 53.6617 39.1594 53.7173 37.3948 55.1039C37.0307 55.39 36.5366 55.9143 36.3165 56.2685L28.7195 67.5865C28.2855 68.2448 28.0676 69.0053 27.9497 69.7777C27.4774 69.6956 26.9932 69.7135 26.4309 69.7474C25.1943 69.9033 23.2314 70.4033 21.8068 71.0695C21.6447 71.1515 20.9845 71.5797 20.8164 71.7117C20.1162 72.262 19.5701 73.0084 19.2181 73.8288C18.7182 75.0375 18.7786 76.4404 19.2912 77.6693C19.5315 78.2057 19.8618 78.626 20.2421 79.0524C20.1121 79.2905 19.9321 79.5226 19.8241 79.7888C19.3461 81.0255 19.3845 82.4004 19.8971 83.6292C19.9953 83.8694 20.2274 84.0496 20.3756 84.2958C19.8534 84.842 19.3473 85.4663 19.0854 86.1707C18.5395 87.5515 18.5439 88.9985 19.1005 90.2834C19.5811 91.3562 20.3917 92.2149 21.4164 92.7694L20.7165 94.5884C19.6247 97.35 20.9242 100.272 23.736 101.371C25.5552 102.072 27.4101 101.838 28.8385 100.716C29.5668 100.144 30.1409 99.3751 30.5048 98.4546L30.7608 97.8002C32.1459 99.1593 33.0268 100.915 33.3656 102.96C33.6442 104.871 34.9214 106.497 36.6905 107.191C37.6831 107.59 38.7898 107.672 39.6542 107.446C40.5126 107.27 41.3169 106.91 41.9891 106.382C42.7174 105.809 43.2634 105.063 43.6494 104.171C44.0074 103.3 44.1212 102.349 43.9468 101.263C43.7243 99.9418 43.3958 98.659 42.9332 97.4361C43.7136 97.2761 44.4399 96.932 45.0841 96.4258C45.3082 96.2497 45.7063 95.8916 45.8923 95.6094C46.7805 94.5489 47.5945 93.0481 48.2204 91.4231C49.5342 88.0792 48.9411 85.1913 46.4852 82.8153C46.6733 82.9394 47.0555 83.1376 47.1496 83.1997C49.0169 84.1346 51.172 83.9368 52.7965 82.6603C53.2446 82.3081 53.6267 81.8719 53.9588 81.4297C54.0488 81.3136 54.3088 80.8374 54.3768 80.6933C56.0308 77.2634 56.7182 73.6412 56.5912 70.251C56.7132 70.291 56.8794 70.3871 56.9794 70.3991C58.6504 70.8537 60.3893 70.5298 61.7057 69.4954C61.7617 69.4513 61.9578 69.2973 61.9858 69.2753C62.698 68.625 63.2281 67.8005 63.576 66.802C63.9598 65.5032 64.2156 64.2144 64.3713 62.9136C65.504 63.202 66.7067 63.1181 67.8571 62.622C68.9856 62.0979 70.066 61.3396 70.7662 60.7893C71.1303 60.5032 71.4944 60.2171 71.8365 59.9029C75.3075 56.7675 75.5406 52.9131 72.5798 48.3957C72.0854 47.6511 71.4147 46.6824 70.562 45.5395C70.9301 45.4315 71.3263 45.3015 71.6785 45.1154L78.8672 41.2341C78.1052 42.5128 76.9929 43.7494 75.5645 44.8719C73.4918 46.5006 72.9563 49.2783 74.1835 51.532C74.2716 51.644 74.5239 52.0804 74.634 52.2205C76.2234 54.4162 79.0891 55.0651 81.448 53.8007C81.5601 53.7126 82.0803 53.3945 82.2203 53.2845L82.6684 52.9323C89.1665 47.8262 92.132 40.0116 90.1931 33.1049C89.9768 32.3684 89.7265 31.7039 89.3701 31.0774L89.3201 31.0714ZM44.6204 76.3488C43.6665 78.5941 44.3135 81.0318 46.0488 82.433C45.4083 81.8485 44.6838 81.33 43.8312 80.8216C43.0507 80.3471 41.9759 79.7866 40.635 79.1179C40.8931 78.8698 41.1572 78.5717 41.3092 78.3616L45.9078 71.5299C45.8282 73.0429 45.4244 74.7199 44.6424 76.3768L44.6204 76.3488ZM53.3301 57.8564C53.7106 58.9172 53.8569 60.0259 53.7972 61.1606C53.3027 60.4161 52.7743 59.7436 52.1678 59.087C52.0797 58.9749 51.9576 58.9349 51.8916 58.8508C52.1377 58.7028 52.4278 58.6108 52.6519 58.4347C52.6519 58.4347 52.96 58.1926 53.3081 57.8284L53.3301 57.8564ZM64.0384 37.9295C64.0384 37.9295 64.0784 37.8074 64.1344 37.7634C64.2225 37.8755 64.3106 37.9875 64.3987 38.0996C64.2907 38.3658 64.2047 38.66 64.1187 38.9541C63.9746 38.8861 63.7805 38.812 63.6364 38.7439C63.5984 38.6378 63.5603 38.5318 63.5223 38.4257C63.6903 38.2936 63.9484 38.0455 64.0384 37.9295Z" fill="white"/>
<path d="M97.0596 32.966C96.3733 33.188 95.725 33.5161 95.1648 33.9563C93.1762 35.5189 92.4145 38.0664 93.2175 40.4721C93.7382 42.0572 94.8072 43.3022 96.2201 44.0049C97.633 44.7076 99.2459 44.8 100.775 44.3239C101.461 44.1019 102.087 43.7458 102.647 43.3056C104.636 41.7429 105.376 39.1674 104.579 36.7117C104.08 35.1546 102.961 33.9036 101.548 33.2009C100.157 32.5262 98.5442 32.4339 97.0155 32.9099L97.0596 32.966Z" fill="white"/>
<path d="M110.926 29.2782C109.989 29.4701 109.129 29.8742 108.401 30.4465C106.636 31.8331 105.832 34.0964 106.275 36.3319C106.59 37.943 107.541 39.326 108.858 40.1948C110.175 41.0636 111.763 41.3561 113.352 41.0141C114.289 40.8222 115.149 40.4181 115.877 39.8458C117.642 38.4592 118.474 36.1739 117.987 33.8823C117.314 30.6041 114.181 28.5783 110.904 29.2501L110.926 29.2782Z" fill="white"/>
<path d="M40.2427 104.218C39.9346 104.46 39.5324 104.64 39.1422 104.72C38.724 104.822 38.2458 104.79 37.7855 104.608C36.9589 104.306 36.3644 103.549 36.2441 102.646C35.8051 99.9546 34.6619 97.6349 32.7964 95.8374C31.8857 94.9667 30.7909 94.15 29.484 93.4093L27.8802 97.4797C27.6983 97.9399 27.4562 98.2661 27.1201 98.5302C26.756 98.8163 25.9677 99.2545 24.8309 98.788C23.4721 98.2694 22.9375 97.0125 23.4494 95.7037L25.1451 91.2892C24.4686 91.0049 23.8142 90.7486 23.1158 90.4363C22.3173 90.112 21.9489 89.5856 21.7687 89.1833C21.5885 88.781 21.4663 88.1065 21.7962 87.258C21.9782 86.7978 22.2542 86.3996 22.6183 86.1134C23.2906 85.5852 24.143 85.4593 24.9635 85.8116C25.662 86.124 26.3164 86.3802 26.9428 86.6585L28.8825 81.6897C29.2124 80.8412 29.6965 80.1888 30.2847 79.7267C31.3491 78.8903 32.7358 78.7524 34.1887 79.3331C38.1753 81.0048 40.8731 82.4202 42.4622 83.3471C44.8819 84.7544 47.1576 86.7281 45.6679 90.4822C45.1279 91.813 44.4439 93.0757 43.7858 93.9101C43.7017 93.9761 43.4937 94.2303 43.4097 94.2963C42.7375 94.8245 41.835 94.9444 40.9865 94.6141C40.8644 94.574 40.5042 94.4039 40.4381 94.3198C39.4974 93.6992 39.1169 92.6385 39.5269 91.5458C39.5609 91.4738 39.7589 91.0916 39.8209 90.9975C40.3049 90.3452 40.779 89.5648 41.0069 88.9324C41.1429 88.6443 41.1269 88.5662 41.1049 88.5382C41.1049 88.5382 40.8847 88.258 39.7279 87.5353C38.2168 86.5924 35.8893 85.4753 33.0174 84.242L31.2877 88.7286C33.3151 89.8097 34.9963 91.0267 36.4254 92.4419C38.9635 94.98 40.6052 98.2223 41.2145 101.823C41.2767 102.363 41.2228 102.813 41.0688 103.252C40.8929 103.662 40.6508 103.988 40.3147 104.252L40.2427 104.218Z" fill="#D8B41E"/>
<path d="M51.0778 80.4747C50.3216 81.069 49.3471 81.1548 48.4605 80.7184C48.4165 80.6624 48.1283 80.5262 48.0562 80.4922C47.0935 79.8436 46.731 78.6328 47.225 77.4741C49.4069 72.8135 49.2355 68.0984 46.7854 65.038L38.9123 76.7542C38.9123 76.7542 38.5582 77.1684 38.4462 77.2565C37.662 77.8727 36.4933 77.8845 35.6027 77.27C34.4519 76.4973 34.1133 75.0863 34.8014 74.0017L43.3565 61.251C43.6665 60.7808 44.0146 60.4166 44.4068 60.1085C45.135 59.5362 45.9274 59.2762 46.8339 59.3344C47.5182 59.3405 48.1947 59.6248 48.8531 60.0592C49.2514 60.3354 49.6437 60.6617 50.002 61.06C54.2535 65.6057 54.9599 72.8465 51.776 79.5182C51.7199 79.5622 51.612 79.8284 51.578 79.9004C51.3979 80.1325 51.2459 80.3427 51.0218 80.5187L51.0778 80.4747ZM34.6869 72.4147C33.9026 73.031 32.706 73.0648 31.8154 72.4502C31.251 72.0779 30.8386 71.4954 30.7383 70.849C30.6321 70.2526 30.754 69.6583 31.0921 69.166L38.7171 57.826C38.7171 57.826 39.0712 57.4118 39.1832 57.3238C39.9675 56.7075 41.1141 56.6677 42.0047 57.2822C42.5691 57.6546 42.9815 58.237 43.1037 58.9115C43.21 59.5079 43.1161 60.0802 42.778 60.5725L35.153 71.9125C35.153 71.9125 34.7989 72.3267 34.6869 72.4147Z" fill="#D8B41E"/>
<path d="M59.9887 67.3097C59.3725 67.7939 58.5921 67.9538 57.7816 67.7296C57.3594 67.6534 56.9331 67.3992 56.5968 67.0289C55.9903 66.3724 55.7979 65.4357 56.0779 64.5812C56.9016 61.9397 56.8789 59.374 56.0037 56.9343C55.5852 55.7675 54.9445 54.5486 54.1097 53.2556C54.1097 53.2556 50.8908 56.1929 50.8628 56.215C49.6864 57.1393 48.4577 57.0171 47.537 56.0183C46.5501 54.9354 46.6118 53.5725 47.6661 52.6081L51.1431 49.4226C50.6807 48.8342 50.2063 48.3458 49.6659 47.7733C48.7011 46.7185 48.8188 45.3116 49.8731 44.3472C51.1055 43.3787 52.4622 43.491 53.361 44.4618C53.8734 45.0563 54.3198 45.5667 54.7882 46.1051L58.7193 42.5175C58.7193 42.5175 59.0274 42.2754 59.0554 42.2534C60.876 40.8228 62.9832 41.0253 64.4985 42.7807C67.3309 46.0392 69.1405 48.5151 70.1234 50.0543C71.6449 52.3941 72.8343 55.1761 69.8454 57.8873C69.5373 58.1294 69.2512 58.3995 68.9431 58.6416C68.383 59.0818 67.5207 59.7141 66.6383 60.0902C65.6719 60.5323 64.5612 60.2719 63.8226 59.4473C63.7566 59.3632 63.5143 59.055 63.4483 58.9709C62.8557 57.9862 63.0215 56.8134 63.8457 56.0751C63.8737 56.0531 63.9297 56.0091 63.9577 55.9871C64.1538 55.833 64.2658 55.745 64.3499 55.6789C64.9141 55.4169 65.4623 55.0767 65.9385 54.7026L66.3306 54.3944C66.5326 54.1904 66.5946 54.0963 66.5946 54.0963C66.5946 54.0963 66.5585 53.7621 65.8118 52.5812C64.8729 51.0981 63.3155 49.0585 61.2878 46.7086L57.7048 49.9321C59.03 51.7915 59.977 53.6309 60.6398 55.5122C61.8074 58.9006 61.8544 62.5349 60.7507 66.031C60.5908 66.5193 60.3148 66.9175 59.9727 67.2316C59.9727 67.2316 59.8606 67.3196 59.8326 67.3417L59.9887 67.3097Z" fill="#D8B41E"/>
<path d="M80.4361 51.0151C80.4361 51.0151 80.156 51.2352 80.078 51.2512C78.9656 51.8534 77.6548 51.569 76.8901 50.5382C76.8681 50.5102 76.714 50.314 76.6699 50.258C76.0673 49.1452 76.3171 47.9064 77.2974 47.1361C81.4427 43.8787 83.3646 39.6943 82.6733 35.9318L70.2965 42.666C69.184 43.2682 67.7912 42.8217 67.1225 41.6248C66.5198 40.512 66.7196 39.2672 67.6159 38.5629C67.6719 38.5189 67.84 38.3868 67.896 38.3428L81.3852 31.0064C83.1739 30.0541 84.5228 30.4446 85.3533 30.925C85.9458 31.2754 86.4422 31.7918 86.8145 32.4963C87.0448 32.9046 87.241 33.3849 87.3812 33.9093C89.0177 39.7393 86.4521 46.3331 80.8503 50.735L80.4301 51.0651L80.4361 51.0151ZM81.1649 30.0918L69.1682 36.6179C68.0558 37.2201 66.6409 36.7456 65.9722 35.5487C65.3916 34.4639 65.6194 33.1971 66.5157 32.4928C66.5717 32.4488 66.7397 32.3167 66.7958 32.2727L78.7924 25.7466C79.9329 25.1224 81.3478 25.5969 81.9664 26.7878C82.547 27.8726 82.3413 29.1674 81.445 29.8717C81.3889 29.9157 81.2209 30.0478 81.1649 30.0918Z" fill="#D8B41E"/>
<path d="M100.931 41.1201C100.623 41.3622 100.298 41.5262 99.9303 41.6342C99.1099 41.9162 98.2814 41.8421 97.5389 41.4737C96.7964 41.1053 96.218 40.4268 95.9636 39.5842C95.557 38.3173 95.9469 36.9685 96.9552 36.1762C97.2633 35.9341 97.5874 35.77 97.9836 35.64C98.776 35.38 99.6324 35.4322 100.353 35.7725C101.095 36.1409 101.652 36.7914 101.934 37.612C102.363 38.9069 101.973 40.2557 100.937 41.07L100.931 41.1201Z" fill="#D8B41E"/>
<path d="M114.136 37.632C113.744 37.9402 113.286 38.1642 112.768 38.2542C111.937 38.4081 111.093 38.2559 110.406 37.8435C109.698 37.4031 109.203 36.6586 109.027 35.8C108.787 34.6292 109.209 33.4365 110.105 32.7322C110.497 32.424 110.955 32.2 111.473 32.11C113.218 31.7361 114.817 32.791 115.192 34.5362C115.427 35.757 115.033 36.9277 114.108 37.654L114.136 37.632Z" fill="#D8B41E"/>
<path d="M28.6709 76.4624C28.3908 76.6825 28.0447 76.8186 27.6545 76.8985C26.4399 77.0825 25.4474 77.3184 24.7551 77.5905C24.353 77.7705 23.8007 77.9325 23.0242 77.6362C22.5139 77.448 22.1556 77.0497 21.9153 76.5133C21.6751 75.9769 21.6469 75.3645 21.8628 74.8322C22.0108 74.444 22.2529 74.1178 22.561 73.8757C22.645 73.8097 22.9751 73.5956 23.0812 73.5576C24.1036 73.0715 25.8044 72.6415 26.7848 72.5056C27.2971 72.4656 27.7253 72.4917 28.1356 72.6679C29.1062 73.0383 29.7969 74.2632 29.319 75.4999C29.171 75.8882 28.957 76.1923 28.6769 76.4124L28.6709 76.4624Z" fill="#D8B41E"/>
<path d="M29.378 82.4342C29.0418 82.6983 28.6457 82.8283 28.2055 82.9023C27.353 83.0282 26.2265 83.3242 25.3221 83.6723C24.7138 83.8783 24.1575 83.8622 23.6472 83.674C23.1369 83.4858 22.7286 83.0815 22.5103 82.5731C22.27 82.0367 22.2639 81.4523 22.4799 80.92C22.6278 80.5318 22.8699 80.2056 23.178 79.9635C23.262 79.8975 23.5921 79.6834 23.6982 79.6454C24.7706 79.1653 26.2933 78.7393 27.4299 78.5714C27.764 78.5354 28.2263 78.4895 28.8307 78.7397C29.9454 79.1782 30.452 80.4571 29.9861 81.5938C29.8381 81.982 29.602 82.2581 29.3219 82.4782L29.378 82.4342Z" fill="#D8B41E"/>
<path d="M61.6486 36.2723C61.1724 36.6465 60.5702 36.8025 59.8758 36.6682C58.665 36.3959 57.6645 36.2756 56.9301 36.2635C56.4958 36.2874 55.8955 36.2153 55.277 35.6588C54.4544 34.9002 54.444 33.5033 55.2022 32.6809C55.2582 32.6369 55.4263 32.5048 55.4823 32.4608C55.9584 32.0866 56.4266 31.9906 56.7828 31.9827C57.9354 31.8928 59.6584 32.1253 60.647 32.3456C61.1633 32.4838 61.5176 32.704 61.8378 32.9962C62.5944 33.6708 62.7829 35.0637 61.9067 36.0242C61.8507 36.0682 61.6826 36.2003 61.6266 36.2443L61.6486 36.2723Z" fill="#D8B41E"/>
<path d="M60.1624 42.1075C59.7983 42.3936 59.15 42.7217 58.2455 42.4354C57.407 42.2331 56.2563 42.0948 55.2938 42.0807C54.6875 42.0585 54.1551 41.8423 53.7408 41.488C53.3545 41.1117 53.0862 40.5973 53.08 40.013C53.0459 39.4506 53.2678 38.8682 53.6499 38.432C53.7059 38.388 53.902 38.2339 53.958 38.1899C54.3221 37.9038 54.7743 37.7298 55.3086 37.7179C56.4552 37.678 58.0621 37.8204 59.2008 38.0587C59.545 38.1509 59.9833 38.305 60.4416 38.7154C61.2863 39.502 61.3247 40.8769 60.4765 41.8154C60.4205 41.8594 60.2524 41.9915 60.1964 42.0355L60.1624 42.1075Z" fill="#D8B41E"/>
</svg>
