<svg width="183" height="26" viewBox="0 0 183 26" fill="none" xmlns="http://www.w3.org/2000/svg">
<g clip-path="url(#clip0_178_4117)">
<path d="M12.0245 24.5992C9.27269 24.5992 6.72702 24.3004 5.04518 23.7766C4.15191 23.5132 3.54003 22.7356 3.54003 21.8456C3.54003 21.6046 3.58584 21.3668 3.67419 21.1323C3.97194 20.2423 4.6918 19.7121 5.6047 19.7121C5.84029 19.7121 6.07261 19.7539 6.33765 19.8406C7.42724 20.1748 9.66861 20.5443 11.9721 20.5443C14.9955 20.5443 18.2283 19.7057 18.2283 17.357C18.2283 15.8275 16.7624 15.0532 13.8732 15.0532C11.1868 15.0532 8.05875 16.1521 5.90246 17.8518C5.16952 18.3916 4.56419 18.6358 3.96867 18.6358C3.57275 18.6358 3.21282 18.5426 2.8758 18.353C2.21484 17.9739 1.82547 17.3248 1.82547 16.6083C1.82547 16.1649 1.96944 15.7087 2.24429 15.2878C3.50731 13.2539 4.574 11.2104 5.54581 8.96126C3.99158 8.96126 2.76782 8.9227 1.81238 8.85523C0.722784 8.75884 0.00292969 7.95558 0.00292969 6.85671C0.00292969 6.85671 0.00292969 6.75068 0.00292969 6.73462C0.0520106 5.64539 0.853666 4.85498 1.90727 4.85498C1.90727 4.85498 2.0447 4.85498 2.06106 4.85498C3.61529 4.92888 5.27422 4.97387 7.00187 4.98029C7.28 4.0967 7.52868 3.18741 7.76099 2.31667C7.9475 1.30135 8.71644 0.674805 9.77658 0.674805C9.88456 0.674805 10.058 0.674805 10.2478 0.719787C11.2327 0.886866 11.8674 1.59695 11.8674 2.5448C11.8674 2.76971 11.8282 2.96571 11.7954 3.12315C11.7889 3.14885 11.7856 3.17134 11.7791 3.19705C11.6057 3.8011 11.4388 4.36017 11.2785 4.87426C13.8732 4.74895 16.7166 4.50476 19.1478 4.19309C19.3277 4.15133 19.4815 4.15132 19.5797 4.15132C20.5777 4.15132 21.3793 4.82928 21.5266 5.80283C21.5331 5.85103 21.5364 5.89922 21.5364 5.94421V6.12414C21.5364 7.19087 20.8394 7.97164 19.7629 8.11623C16.8475 8.52429 13.1861 8.81667 9.8453 8.91306C9.34794 10.134 8.80805 11.3036 8.2289 12.4185C10.1038 11.6506 12.1456 11.2297 14.135 11.2297C18.1596 11.2297 22.4591 12.8394 22.4591 17.357C22.4591 19.0567 21.7065 24.5992 12.0212 24.5992H12.0245Z" fill="white"/>
<path d="M33.0247 25.6624C32.2983 25.6624 31.6864 25.2897 31.3428 24.6407C31.1923 24.3804 31.1171 24.0912 31.1171 23.7635C31.1171 23.0052 31.5653 22.3337 32.2656 22.0477C32.6189 21.8903 32.9494 21.6975 33.2505 21.4822C32.1249 20.7754 31.0124 19.6187 30.5183 18.0025C30.371 18.6708 30.2925 19.368 30.2827 20.091C30.2402 21.2702 29.5268 22.0509 28.4176 22.1538C28.3882 22.1538 28.3554 22.157 28.326 22.157C27.171 22.157 26.3366 21.4276 26.2384 20.3352C26.1272 19.4998 26.0585 18.2531 26.0225 16.4153C26.0225 14.3942 26.1108 11.8656 26.7783 8.28624C26.9354 7.37052 27.7043 6.74397 28.6957 6.74397H28.879C28.9313 6.74397 28.9804 6.74719 29.0328 6.75682C30.0177 6.91105 30.6524 7.589 30.6524 8.48866C30.6524 8.61718 30.6524 8.79068 30.5935 8.99311C30.4332 9.69998 30.2827 10.4968 30.1616 11.2776C30.3056 11.1105 30.4561 10.9466 30.6132 10.7924C31.8467 9.52969 33.3879 8.63967 35.0174 8.23483C34.9748 7.97136 34.929 7.72074 34.8799 7.4637L34.857 7.3416C34.8472 7.28376 34.8407 7.22593 34.8407 7.16809V7.06528C34.8407 6.09172 35.5376 5.33344 36.5323 5.2242C36.5683 5.22099 36.6043 5.21777 36.6403 5.21777H36.7974C37.8019 5.21777 38.5741 5.85074 38.7181 6.79217C38.7508 7.05564 38.7868 7.27413 38.8228 7.49261C38.8457 7.64041 38.8719 7.78821 38.8948 7.94244C42.6282 8.37299 45.4618 11.3451 45.4912 15.0465C45.5076 17.1735 44.7583 19.0949 43.3873 20.4605C41.977 21.8646 40.0171 22.6229 37.7168 22.655C37.6023 22.6743 37.491 22.6807 37.3863 22.6807C36.5912 23.7603 35.4133 24.7435 34.1372 25.3732C33.7707 25.5692 33.4042 25.6656 33.0214 25.6656L33.0247 25.6624ZM39.271 11.7563C39.3332 12.5467 39.3758 13.3211 39.3954 14.0665C39.3954 14.0762 39.3954 14.089 39.3954 14.0986C39.3758 16.0618 39.2383 17.5495 38.9537 18.7768C40.5897 18.3591 41.6237 16.9743 41.604 15.0818C41.5877 13.7002 40.786 12.2768 39.271 11.7531V11.7563ZM32.3114 15.5381C33.1556 15.5381 33.8198 16.0425 34.0914 16.8876C34.2779 17.5013 34.6542 18.0121 35.1384 18.3431C35.3904 17.3181 35.5016 15.9847 35.5016 14.1179C35.482 13.3114 35.446 12.5981 35.4002 11.962C34.363 12.3443 33.3224 13.0608 32.5241 13.9701C32.0431 14.542 31.6341 15.1525 31.3068 15.7983C31.4083 15.7405 31.5195 15.6891 31.6373 15.6505C31.6668 15.6409 31.6995 15.6313 31.7289 15.6216C31.9514 15.567 32.1412 15.5413 32.3114 15.5413V15.5381Z" fill="white"/>
<path d="M55.6643 25.0648C54.6434 25.0648 53.8581 24.435 53.6062 23.4165C53.5473 23.2109 53.5473 23.0245 53.5473 22.9088C53.5473 21.8839 54.2573 21.0774 55.3109 20.8942C55.324 20.8942 55.3371 20.891 55.3502 20.8878C57.8337 20.5633 60.4644 19.7825 62.0514 18.9022C64.2077 17.7005 65.3038 16.0811 65.3038 14.0858C65.3038 13.3629 65.3038 11.4447 61.1352 11.4447C58.3441 11.4447 54.5158 12.3058 51.8622 13.1122C51.8294 13.1219 51.7967 13.1315 51.764 13.1379C51.6037 13.1701 51.4041 13.2086 51.175 13.2086C50.2817 13.2086 49.5324 12.6624 49.2183 11.7853C49.202 11.7435 49.1922 11.6985 49.1823 11.6567C49.1496 11.4993 49.1104 11.3033 49.1104 11.0784C49.1104 10.1337 49.7222 9.33691 50.6384 9.0895C53.9334 8.09024 58.1282 7.41872 61.0828 7.41872C65.1827 7.41872 69.5673 9.14412 69.5673 13.9862C69.5673 17.694 67.6728 20.6051 63.9361 22.6389C61.8518 23.7667 58.8546 24.6792 56.0962 25.0262C55.9162 25.068 55.7657 25.068 55.6676 25.068L55.6643 25.0648ZM65.3071 6.51585C61.7765 6.43874 56.7179 5.83468 53.5178 5.11817C52.5231 4.88683 51.9112 4.14783 51.9112 3.19355C51.9112 3.01041 51.944 2.85297 51.9701 2.72766L51.9832 2.66983C52.2188 1.6545 53.0107 1.0376 54.0544 1.0376H54.2671C54.3424 1.0376 54.4144 1.04724 54.4864 1.0633C57.3789 1.71555 61.6947 2.2457 65.487 2.416C66.6748 2.46098 67.5059 3.32529 67.5059 4.52054C67.5059 4.52054 67.5059 4.59766 67.5059 4.61372C67.4568 5.75435 66.6061 6.52227 65.3889 6.52227H65.3103L65.3071 6.51585Z" fill="white"/>
<path d="M87.6291 24.1331C83.0416 24.1331 80.5909 23.3041 79.4457 21.3602C78.5786 20.0236 78.3528 18.5038 78.3528 14.0377V13.3372C78.3528 12.8617 78.3593 12.383 78.3659 11.8914C78.3659 11.7243 78.3691 11.554 78.3724 11.3837C77.8227 11.4223 77.2632 11.4672 76.7168 11.5122C76.2325 11.5508 75.7449 11.5893 75.2607 11.6247C75.2345 11.6247 75.2116 11.6247 75.1854 11.6247H75.0284C73.978 11.6247 73.1796 10.8471 73.124 9.77396C73.124 9.7579 73.124 9.64866 73.124 9.64866C73.124 8.58514 73.8962 7.77545 74.9564 7.72725L75.2247 7.70797C76.2587 7.63407 77.3188 7.55696 78.392 7.46699C78.4051 6.1143 78.4051 4.70377 78.4051 3.52779C78.4051 2.35182 79.2722 1.60318 80.4698 1.60318C80.4829 1.60318 80.496 1.60318 80.5091 1.60318C81.7361 1.64816 82.5639 2.42251 82.5639 3.52458C82.5639 4.72305 82.5639 5.95043 82.5508 7.19067C83.7877 7.11356 85.139 7.03323 86.5035 6.97219C86.834 6.95612 87.1874 6.94005 87.5604 6.92078C88.1984 6.88865 88.8986 6.85651 89.6316 6.82438C89.6316 6.59304 89.6316 6.35849 89.6316 6.11751C89.6316 5.58093 89.625 5.04757 89.6185 4.52705C89.612 4.01618 89.6054 3.51816 89.6054 3.02977C89.6054 1.93091 90.4627 1.13086 91.6439 1.13086C92.8251 1.13086 93.7348 1.93412 93.7348 3.00407V5.28533C93.7348 5.7448 93.7348 6.21391 93.7282 6.70229C94.7753 6.67337 95.8681 6.65409 96.9316 6.63481H97.1999C98.4596 6.6316 99.2286 7.36739 99.2286 8.55301C99.2286 9.73862 98.4498 10.5547 97.2424 10.5547C96.2772 10.5547 95.2595 10.5772 94.2779 10.5997C94.0751 10.6029 93.8722 10.6094 93.666 10.6126C93.6268 12.1323 93.4959 13.5461 93.2898 14.5968C92.691 17.752 90.6819 18.4139 89.1015 18.4139C87.5211 18.4139 85.692 17.7777 84.3832 16.7142C84.3734 16.7077 84.3636 16.6981 84.357 16.6917C83.9055 16.2965 83.6568 15.7567 83.6568 15.1655C83.6568 14.7574 83.8008 14.3269 84.0494 13.9831C84.0593 13.9702 84.0691 13.9541 84.0822 13.9413C84.4781 13.4561 85.0801 13.1637 85.6953 13.1637C86.1796 13.1637 86.6344 13.3308 87.0074 13.6457C87.5604 14.073 88.3489 14.3847 88.8888 14.3847C89.0459 14.3847 89.0917 14.359 89.0917 14.359C89.0917 14.359 89.216 14.2594 89.324 13.71C89.4451 13.0609 89.5302 12.0649 89.5727 10.7443C89.504 10.7443 89.4353 10.7475 89.3665 10.7507C88.4242 10.7796 87.5309 10.8086 86.6802 10.8632C86.101 10.8985 85.5219 10.9307 84.9427 10.9628C84.1411 11.0078 83.323 11.0528 82.5018 11.1074V13.0641C82.5018 17.058 82.5967 18.4942 82.8911 18.9761C82.8977 18.989 82.9042 18.9986 82.9108 19.0115C83.2707 19.6605 84.1443 20.0397 87.544 20.0397C89.9032 20.0397 92.4259 19.8147 94.2943 19.4356C94.5266 19.3906 94.7295 19.3906 94.8636 19.3906C95.8911 19.3906 96.6534 20.0204 96.8269 21.0036C96.8759 21.1867 96.8759 21.3442 96.8759 21.4438C96.8759 22.5137 96.1724 23.3234 95.0861 23.5098C93.0902 23.8921 90.2958 24.1202 87.6258 24.1202L87.6291 24.1331Z" fill="white"/>
<path d="M103.64 24.676C103.407 24.676 103.155 24.6342 102.91 24.5571C102.004 24.3097 101.418 23.5643 101.418 22.6486C101.418 22.3241 101.474 22.0317 101.588 21.7553C104.098 14.8666 106.761 7.89746 109.094 2.13646C109.408 1.29464 110.128 0.777344 111.012 0.777344C111.267 0.777344 111.525 0.819113 111.774 0.896227C112.644 1.14363 113.181 1.84086 113.181 2.72445C113.181 2.91081 113.158 3.28031 112.998 3.64981C112.504 4.8547 112.01 6.04996 111.529 7.21951C110.979 8.54971 110.452 9.82529 109.942 11.0752C110.94 10.5257 111.993 10.243 113.073 10.243C114.624 10.243 115.864 10.9145 116.568 12.1323C117.186 13.2118 117.409 14.3846 117.487 16.9615C117.526 18.0796 117.608 19.6155 117.899 20.0428C118.027 20.1906 118.367 20.332 118.858 20.332C119.509 20.332 120.098 20.0203 120.478 19.4773C121.152 18.5294 121.665 17.0739 121.927 15.3646C122.117 14.2914 122.902 13.6103 123.93 13.6103C124.044 13.6103 124.224 13.6103 124.424 13.6617C125.428 13.8641 126.073 14.6449 126.073 15.6634C126.073 15.7694 126.073 15.9333 126.03 16.1164C125.671 18.6066 124.826 20.7207 123.586 22.2341C122.448 23.7185 120.753 24.5121 118.701 24.5121C116.502 24.5121 115.324 23.6768 114.725 22.9731C113.839 21.9642 113.44 20.4733 113.361 17.8419C113.309 15.8273 113.227 15.114 112.981 14.5131C112.89 14.2914 112.837 14.2111 112.468 14.2111C111.149 14.2111 109.631 15.265 108.509 16.9615C107.583 18.3463 106.434 20.7914 105.573 23.1884C105.567 23.2044 105.564 23.2173 105.557 23.2334C105.066 24.4158 104.245 24.6632 103.646 24.6632L103.64 24.676Z" fill="white"/>
<path d="M141.416 26C140.202 26 139.351 25.2739 139.351 24.2328V17.8549H133.147C130.916 17.8549 129.734 16.7143 129.734 14.5551V7.93945C129.734 5.75136 130.883 4.63964 133.147 4.63964H139.351V1.76718C139.351 0.726149 140.198 0 141.416 0C142.633 0 143.428 0.726149 143.428 1.76718V4.64286H150.028C152.292 4.64286 153.44 5.75136 153.44 7.94266V14.5583C153.44 16.7175 152.259 17.8581 150.028 17.8581H143.428V24.236C143.428 25.2771 142.6 26.0032 141.416 26.0032V26ZM149.184 14.0057C149.259 14.0057 149.318 14.0057 149.363 13.9993C149.363 13.9864 149.363 8.49852 149.363 8.4953C149.318 8.49209 149.256 8.48888 149.184 8.48888H143.428V14.0057H149.184ZM133.815 13.9993C133.86 14.0025 133.919 14.0057 133.995 14.0057H139.354V8.48888H133.995C133.919 8.48888 133.86 8.48888 133.815 8.4953C133.815 8.50173 133.815 13.9864 133.815 13.9993Z" fill="white"/>
<path d="M160.066 24.1844C158.466 24.1844 157.262 22.9892 157.262 21.4051C157.262 19.8211 158.466 18.6772 160.066 18.6772C161.666 18.6772 162.87 19.85 162.87 21.4051C162.87 22.9602 161.666 24.1844 160.066 24.1844Z" fill="white"/>
<path d="M170.131 24.1844C168.531 24.1844 167.327 22.9892 167.327 21.4051C167.327 19.8211 168.531 18.6772 170.131 18.6772C171.731 18.6772 172.935 19.85 172.935 21.4051C172.935 22.9602 171.731 24.1844 170.131 24.1844Z" fill="white"/>
<path d="M180.196 24.1844C178.596 24.1844 177.392 22.9892 177.392 21.4051C177.392 19.8211 178.596 18.6772 180.196 18.6772C181.796 18.6772 183 19.85 183 21.4051C183 22.9602 181.796 24.1844 180.196 24.1844Z" fill="white"/>
</g>
<defs>
<clipPath id="clip0_178_4117">
<rect width="183" height="26" fill="white"/>
</clipPath>
</defs>
</svg>
